<svg xmlns="http://www.w3.org/2000/svg" xmlns:xlink="http://www.w3.org/1999/xlink" width="500" zoomAndPan="magnify" viewBox="0 0 375 374.999991" height="500" preserveAspectRatio="xMidYMid meet" version="1.0"><defs><g/><clipPath id="52f7808c47"><path d="M 44.109375 53.675781 L 158 53.675781 L 158 167 L 44.109375 167 Z M 44.109375 53.675781 " clip-rule="nonzero"/></clipPath><clipPath id="8df126ef09"><path d="M 51 200 L 165 200 L 165 313.273438 L 51 313.273438 Z M 51 200 " clip-rule="nonzero"/></clipPath><clipPath id="188c6fb14f"><path d="M 27 187 L 178 187 L 178 329 L 27 329 Z M 27 187 " clip-rule="nonzero"/></clipPath><clipPath id="ed96fe3886"><path d="M 188.226562 201.113281 L 163.976562 339.25 L 25.839844 315 L 50.085938 176.863281 Z M 188.226562 201.113281 " clip-rule="nonzero"/></clipPath><clipPath id="71c7753505"><path d="M 188.226562 201.113281 L 163.976562 339.25 L 25.839844 315 L 50.085938 176.863281 Z M 188.226562 201.113281 " clip-rule="nonzero"/></clipPath><clipPath id="cdbe452c33"><path d="M 182 189 L 323 189 L 323 327 L 182 327 Z M 182 189 " clip-rule="nonzero"/></clipPath><clipPath id="ba59b29568"><path d="M 177.640625 194.863281 L 313.796875 185.183594 L 323.476562 321.339844 L 187.320312 331.019531 Z M 177.640625 194.863281 " clip-rule="nonzero"/></clipPath><clipPath id="60515bee64"><path d="M 177.640625 194.863281 L 313.796875 185.183594 L 323.476562 321.339844 L 187.320312 331.019531 Z M 177.640625 194.863281 " clip-rule="nonzero"/></clipPath><clipPath id="ea3d222cb9"><path d="M 26 41 L 172 41 L 172 182 L 26 182 Z M 26 41 " clip-rule="nonzero"/></clipPath><clipPath id="9f66306b3f"><path d="M 177.285156 175.511719 L 37.527344 187.21875 L 25.816406 47.460938 L 165.578125 35.75 Z M 177.285156 175.511719 " clip-rule="nonzero"/></clipPath><clipPath id="e685464c1e"><path d="M 177.285156 175.511719 L 37.527344 187.21875 L 25.816406 47.460938 L 165.578125 35.75 Z M 177.285156 175.511719 " clip-rule="nonzero"/></clipPath></defs><rect x="-37.5" width="450" fill="#ffffff" y="-37.499999" height="449.999989" fill-opacity="1"/><rect x="-37.5" width="450" fill="#ffffff" y="-37.499999" height="449.999989" fill-opacity="1"/><path fill="#b9e185" d="M 251.730469 200.777344 C 220.601562 200.777344 195.277344 226.105469 195.277344 257.234375 C 195.277344 288.363281 220.601562 313.691406 251.730469 313.691406 C 282.859375 313.691406 308.1875 288.363281 308.1875 257.234375 C 308.1875 226.105469 282.863281 200.777344 251.730469 200.777344 Z M 251.730469 307.496094 C 224.015625 307.496094 201.46875 284.949219 201.46875 257.234375 C 201.46875 229.519531 224.015625 206.972656 251.730469 206.972656 C 279.445312 206.972656 301.992188 229.519531 301.992188 257.234375 C 301.996094 284.949219 279.449219 307.496094 251.730469 307.496094 Z M 251.730469 307.496094 " fill-opacity="1" fill-rule="nonzero"/><path fill="#b9e185" d="M 239.484375 257.035156 C 241.195312 257.035156 242.582031 255.648438 242.582031 253.941406 L 242.582031 231.199219 C 242.582031 229.488281 241.195312 228.101562 239.484375 228.101562 C 237.773438 228.101562 236.386719 229.488281 236.386719 231.199219 L 236.386719 253.941406 C 236.386719 255.652344 237.773438 257.035156 239.484375 257.035156 Z M 239.484375 257.035156 " fill-opacity="1" fill-rule="nonzero"/><path fill="#b9e185" d="M 263.980469 257.035156 C 265.691406 257.035156 267.078125 255.648438 267.078125 253.941406 L 267.078125 231.199219 C 267.078125 229.488281 265.691406 228.101562 263.980469 228.101562 C 262.269531 228.101562 260.882812 229.488281 260.882812 231.199219 L 260.882812 253.941406 C 260.882812 255.652344 262.269531 257.035156 263.980469 257.035156 Z M 263.980469 257.035156 " fill-opacity="1" fill-rule="nonzero"/><path fill="#b9e185" d="M 279.09375 259.265625 C 277.414062 258.90625 275.777344 259.984375 275.429688 261.660156 C 275.25 262.492188 270.933594 282.007812 251.730469 282.007812 C 232.628906 282.007812 228.210938 262.480469 228.035156 261.660156 C 227.683594 259.984375 226.054688 258.914062 224.367188 259.265625 C 222.691406 259.617188 221.621094 261.261719 221.972656 262.933594 C 223.808594 271.671875 232.386719 288.207031 251.730469 288.207031 C 271.074219 288.207031 279.65625 271.671875 281.488281 262.933594 C 281.839844 261.261719 280.769531 259.617188 279.09375 259.265625 Z M 279.09375 259.265625 " fill-opacity="1" fill-rule="nonzero"/><g clip-path="url(#52f7808c47)"><path fill="#1977a2" d="M 101.195312 53.675781 C 70.023438 53.675781 44.660156 79.039062 44.660156 110.210938 C 44.660156 141.386719 70.023438 166.746094 101.195312 166.746094 C 132.371094 166.746094 157.730469 141.386719 157.730469 110.210938 C 157.730469 79.039062 132.375 53.675781 101.195312 53.675781 Z M 101.195312 160.546875 C 73.445312 160.546875 50.863281 137.96875 50.863281 110.210938 C 50.863281 82.457031 73.445312 59.878906 101.195312 59.878906 C 128.949219 59.878906 151.53125 82.460938 151.53125 110.210938 C 151.53125 137.964844 128.953125 160.546875 101.195312 160.546875 Z M 101.195312 160.546875 " fill-opacity="1" fill-rule="nonzero"/></g><path fill="#1977a2" d="M 88.933594 110.015625 C 90.644531 110.015625 92.035156 108.628906 92.035156 106.914062 L 92.035156 84.144531 C 92.035156 82.429688 90.644531 81.042969 88.933594 81.042969 C 87.222656 81.042969 85.832031 82.429688 85.832031 84.144531 L 85.832031 106.914062 C 85.832031 108.628906 87.222656 110.015625 88.933594 110.015625 Z M 88.933594 110.015625 " fill-opacity="1" fill-rule="nonzero"/><path fill="#1977a2" d="M 113.464844 110.015625 C 115.175781 110.015625 116.566406 108.628906 116.566406 106.914062 L 116.566406 84.144531 C 116.566406 82.429688 115.175781 81.042969 113.464844 81.042969 C 111.753906 81.042969 110.363281 82.429688 110.363281 84.144531 L 110.363281 106.914062 C 110.363281 108.628906 111.75 110.015625 113.464844 110.015625 Z M 113.464844 110.015625 " fill-opacity="1" fill-rule="nonzero"/><path fill="#1977a2" d="M 127.964844 118.453125 L 74.433594 118.453125 C 73.5 118.453125 72.617188 118.875 72.027344 119.601562 C 71.4375 120.328125 71.207031 121.277344 71.402344 122.195312 C 73.238281 130.949219 81.828125 147.507812 101.199219 147.507812 C 120.570312 147.507812 129.164062 130.949219 131 122.195312 C 131.191406 121.277344 130.960938 120.328125 130.375 119.601562 C 129.785156 118.875 128.898438 118.453125 127.964844 118.453125 Z M 101.195312 141.300781 C 87.015625 141.300781 80.917969 130.554688 78.636719 124.65625 L 123.773438 124.65625 C 121.523438 130.554688 115.457031 141.300781 101.195312 141.300781 Z M 101.195312 141.300781 " fill-opacity="1" fill-rule="nonzero"/><g clip-path="url(#8df126ef09)"><path fill="#c38d9e" d="M 107.746094 200.226562 C 76.617188 200.226562 51.292969 225.550781 51.292969 256.683594 C 51.292969 287.816406 76.617188 313.136719 107.746094 313.136719 C 138.875 313.136719 164.203125 287.8125 164.203125 256.683594 C 164.203125 225.554688 138.878906 200.226562 107.746094 200.226562 Z M 107.746094 306.945312 C 80.03125 306.945312 57.484375 284.398438 57.484375 256.683594 C 57.484375 228.96875 80.03125 206.421875 107.746094 206.421875 C 135.460938 206.421875 158.007812 228.96875 158.007812 256.683594 C 158.007812 284.398438 135.460938 306.945312 107.746094 306.945312 Z M 107.746094 306.945312 " fill-opacity="1" fill-rule="nonzero"/></g><path fill="#c38d9e" d="M 119.996094 256.488281 C 121.707031 256.488281 123.09375 255.105469 123.09375 253.390625 L 123.09375 230.652344 C 123.09375 228.9375 121.707031 227.554688 119.996094 227.554688 C 118.285156 227.554688 116.898438 228.9375 116.898438 230.652344 L 116.898438 253.390625 C 116.898438 255.101562 118.285156 256.488281 119.996094 256.488281 Z M 119.996094 256.488281 " fill-opacity="1" fill-rule="nonzero"/><path fill="#c38d9e" d="M 95.5 256.488281 C 97.207031 256.488281 98.597656 255.105469 98.597656 253.390625 L 98.597656 230.652344 C 98.597656 228.9375 97.207031 227.554688 95.5 227.554688 C 93.789062 227.554688 92.402344 228.9375 92.402344 230.652344 L 92.402344 253.390625 C 92.402344 255.101562 93.789062 256.488281 95.5 256.488281 Z M 95.5 256.488281 " fill-opacity="1" fill-rule="nonzero"/><path fill="#c38d9e" d="M 135.121094 265.160156 L 79.375 274.261719 C 77.6875 274.539062 76.542969 276.132812 76.820312 277.816406 C 77.066406 279.332031 78.378906 280.414062 79.871094 280.414062 C 80.035156 280.414062 80.203125 280.402344 80.375 280.375 L 136.121094 271.269531 C 137.808594 270.992188 138.953125 269.402344 138.675781 267.714844 C 138.402344 266.03125 136.832031 264.894531 135.121094 265.160156 Z M 135.121094 265.160156 " fill-opacity="1" fill-rule="nonzero"/><g clip-path="url(#188c6fb14f)"><g clip-path="url(#ed96fe3886)"><g clip-path="url(#71c7753505)"><path fill="#b9e185" d="M 37.675781 246.019531 C 40.917969 227.535156 51.167969 211.417969 66.53125 200.644531 C 81.898438 189.867188 100.539062 185.71875 119.023438 188.964844 C 137.507812 192.210938 153.621094 202.457031 164.398438 217.824219 C 175.175781 233.1875 179.320312 251.832031 176.078125 270.3125 C 172.832031 288.796875 162.582031 304.914062 147.21875 315.6875 C 131.855469 326.464844 113.210938 330.613281 94.726562 327.367188 C 84.433594 325.5625 75.394531 321 74.980469 320.789062 C 71.414062 318.976562 67.980469 316.839844 64.765625 314.4375 L 29.289062 315.203125 C 28.589844 315.214844 27.929688 314.886719 27.519531 314.316406 C 27.113281 313.75 27.011719 313.015625 27.25 312.355469 L 39.566406 278.324219 C 38.351562 274.28125 37.496094 270.113281 37.03125 265.925781 C 36.984375 265.519531 35.941406 255.882812 37.675781 246.019531 Z M 171.894531 269.582031 C 174.945312 252.210938 171.046875 234.699219 160.921875 220.261719 C 150.796875 205.824219 135.65625 196.195312 118.289062 193.148438 C 100.921875 190.097656 83.40625 193.996094 68.96875 204.121094 C 54.535156 214.246094 44.90625 229.386719 41.855469 246.753906 C 40.230469 256.023438 41.238281 265.359375 41.25 265.453125 C 41.714844 269.613281 42.582031 273.75 43.832031 277.746094 C 43.96875 278.191406 43.957031 278.667969 43.800781 279.101562 L 32.292969 310.890625 L 65.414062 310.179688 C 65.894531 310.167969 66.367188 310.324219 66.746094 310.613281 C 69.925781 313.042969 73.34375 315.195312 76.90625 317.003906 C 77.03125 317.070312 85.816406 321.492188 95.460938 323.1875 C 112.828125 326.234375 130.34375 322.339844 144.78125 312.214844 C 159.21875 302.089844 168.847656 286.949219 171.894531 269.582031 Z M 171.894531 269.582031 " fill-opacity="1" fill-rule="nonzero"/></g></g></g><g clip-path="url(#cdbe452c33)"><g clip-path="url(#ba59b29568)"><g clip-path="url(#60515bee64)"><path fill="#1977a2" d="M 255.480469 326.316406 C 237.277344 327.609375 219.660156 321.738281 205.871094 309.78125 C 192.085938 297.824219 183.78125 281.214844 182.484375 263.011719 C 181.191406 244.808594 187.0625 227.191406 199.019531 213.40625 C 210.972656 199.617188 227.582031 191.3125 245.785156 190.019531 C 263.988281 188.722656 281.605469 194.597656 295.394531 206.550781 C 309.179688 218.507812 317.488281 235.117188 318.78125 253.320312 C 319.5 263.457031 317.328125 273.0625 317.226562 273.5 C 316.355469 277.292969 315.152344 281.035156 313.644531 284.632812 L 322.722656 317.921875 C 322.902344 318.578125 322.746094 319.28125 322.304688 319.800781 C 321.867188 320.320312 321.195312 320.585938 320.519531 320.519531 L 285.511719 316.917969 C 281.984375 319.015625 278.253906 320.804688 274.410156 322.230469 C 274.039062 322.367188 265.191406 325.625 255.480469 326.316406 Z M 246.078125 194.136719 C 228.976562 195.351562 213.371094 203.15625 202.136719 216.109375 C 190.902344 229.0625 185.386719 245.617188 186.601562 262.71875 C 187.820312 279.824219 195.621094 295.429688 208.578125 306.664062 C 221.53125 317.894531 238.082031 323.414062 255.1875 322.195312 C 264.3125 321.546875 272.886719 318.394531 272.972656 318.363281 C 276.785156 316.945312 280.484375 315.152344 283.960938 313.03125 C 284.347656 312.796875 284.796875 312.691406 285.246094 312.738281 L 317.949219 316.105469 L 309.472656 285.027344 C 309.347656 284.574219 309.382812 284.09375 309.570312 283.664062 C 311.113281 280.09375 312.335938 276.363281 313.203125 272.578125 C 313.203125 272.574219 313.203125 272.574219 313.203125 272.574219 C 313.234375 272.441406 315.339844 263.113281 314.664062 253.613281 C 313.445312 236.511719 305.644531 220.90625 292.691406 209.671875 C 279.734375 198.4375 263.183594 192.921875 246.078125 194.136719 Z M 246.078125 194.136719 " fill-opacity="1" fill-rule="nonzero"/></g></g></g><g clip-path="url(#ea3d222cb9)"><g clip-path="url(#9f66306b3f)"><g clip-path="url(#e685464c1e)"><path fill="#c38d9e" d="M 95.539062 41.347656 C 114.242188 39.78125 132.433594 45.589844 146.765625 57.707031 C 161.097656 69.824219 169.855469 86.796875 171.421875 105.496094 C 172.988281 124.199219 167.179688 142.390625 155.0625 156.722656 C 142.945312 171.054688 125.972656 179.808594 107.273438 181.378906 C 88.570312 182.945312 70.378906 177.132812 56.046875 165.019531 C 41.714844 152.902344 32.960938 135.929688 31.390625 117.230469 C 30.519531 106.8125 32.628906 96.910156 32.726562 96.457031 C 33.574219 92.546875 34.765625 88.683594 36.269531 84.964844 L 26.5 50.847656 C 26.308594 50.175781 26.460938 49.453125 26.90625 48.914062 C 27.351562 48.375 28.035156 48.089844 28.734375 48.152344 L 64.78125 51.402344 C 68.378906 49.195312 72.195312 47.308594 76.125 45.792969 C 76.507812 45.644531 85.5625 42.183594 95.539062 41.347656 Z M 106.917969 177.148438 C 124.488281 175.675781 140.4375 167.449219 151.820312 153.980469 C 163.203125 140.515625 168.664062 123.421875 167.191406 105.851562 C 165.71875 88.28125 157.492188 72.332031 144.027344 60.949219 C 130.558594 49.566406 113.464844 44.105469 95.894531 45.578125 C 86.515625 46.363281 77.742188 49.71875 77.65625 49.753906 C 73.75 51.261719 69.972656 53.152344 66.425781 55.378906 C 66.03125 55.625 65.566406 55.734375 65.105469 55.695312 L 31.433594 52.65625 L 40.554688 84.503906 C 40.6875 84.96875 40.65625 85.460938 40.472656 85.90625 C 38.929688 89.597656 37.722656 93.449219 36.878906 97.355469 C 36.878906 97.355469 36.878906 97.355469 36.878906 97.359375 C 36.847656 97.492188 34.804688 107.113281 35.621094 116.875 C 37.09375 134.445312 45.320312 150.390625 58.789062 161.777344 C 72.253906 173.160156 89.347656 178.617188 106.917969 177.148438 Z M 106.917969 177.148438 " fill-opacity="1" fill-rule="nonzero"/></g></g></g><g fill="#b9e185" fill-opacity="1"><g transform="translate(175.453254, 118.376335)"><g><path d="M 7.578125 0 L 7.578125 -34.734375 L 1.453125 -34.734375 L 1.453125 -43.390625 L 7.578125 -43.390625 C 7.140625 -45.222656 6.921875 -46.9375 6.921875 -48.53125 C 6.921875 -51.28125 7.546875 -53.628906 8.796875 -55.578125 C 10.054688 -57.535156 11.863281 -59.023438 14.21875 -60.046875 C 16.582031 -61.066406 19.390625 -61.578125 22.640625 -61.578125 C 27.429688 -61.578125 31.003906 -60.753906 33.359375 -59.109375 L 30.8125 -51.09375 L 29.984375 -50.9375 C 28.359375 -52.082031 26.273438 -52.65625 23.734375 -52.65625 C 21.773438 -52.65625 20.300781 -52.175781 19.3125 -51.21875 C 18.332031 -50.269531 17.84375 -48.96875 17.84375 -47.3125 C 17.84375 -46.601562 17.882812 -45.953125 17.96875 -45.359375 C 18.0625 -44.773438 18.226562 -44.117188 18.46875 -43.390625 L 30.84375 -43.390625 L 30.84375 -34.734375 L 18.46875 -34.734375 L 18.46875 0 Z M 7.578125 0 "/></g></g></g><g fill="#b9e185" fill-opacity="1"><g transform="translate(202.306674, 118.376335)"><g><path d="M 42.828125 -19.21875 L 14.96875 -19.21875 C 15.28125 -15.445312 16.351562 -12.703125 18.1875 -10.984375 C 20.03125 -9.265625 22.535156 -8.40625 25.703125 -8.40625 C 28.191406 -8.40625 30.207031 -8.867188 31.75 -9.796875 C 33.300781 -10.734375 34.546875 -12.144531 35.484375 -14.03125 L 36.3125 -14.03125 L 43.546875 -9.390625 C 42.128906 -6.347656 39.992188 -3.882812 37.140625 -2 C 34.285156 -0.113281 30.472656 0.828125 25.703125 0.828125 C 21.222656 0.828125 17.351562 -0.0195312 14.09375 -1.71875 C 10.832031 -3.425781 8.316406 -5.960938 6.546875 -9.328125 C 4.773438 -12.703125 3.890625 -16.8125 3.890625 -21.65625 C 3.890625 -26.582031 4.816406 -30.734375 6.671875 -34.109375 C 8.535156 -37.492188 11.050781 -40.015625 14.21875 -41.671875 C 17.394531 -43.335938 20.960938 -44.171875 24.921875 -44.171875 C 31.046875 -44.171875 35.738281 -42.546875 39 -39.296875 C 42.257812 -36.046875 43.890625 -31.28125 43.890625 -25 C 43.890625 -22.71875 43.8125 -20.945312 43.65625 -19.6875 Z M 33.484375 -26.25 C 33.378906 -29.550781 32.613281 -31.953125 31.1875 -33.453125 C 29.757812 -34.960938 27.671875 -35.71875 24.921875 -35.71875 C 19.410156 -35.71875 16.171875 -32.5625 15.203125 -26.25 Z M 33.484375 -26.25 "/></g></g></g><g fill="#b9e185" fill-opacity="1"><g transform="translate(244.996869, 118.376335)"><g><path d="M 42.828125 -19.21875 L 14.96875 -19.21875 C 15.28125 -15.445312 16.351562 -12.703125 18.1875 -10.984375 C 20.03125 -9.265625 22.535156 -8.40625 25.703125 -8.40625 C 28.191406 -8.40625 30.207031 -8.867188 31.75 -9.796875 C 33.300781 -10.734375 34.546875 -12.144531 35.484375 -14.03125 L 36.3125 -14.03125 L 43.546875 -9.390625 C 42.128906 -6.347656 39.992188 -3.882812 37.140625 -2 C 34.285156 -0.113281 30.472656 0.828125 25.703125 0.828125 C 21.222656 0.828125 17.351562 -0.0195312 14.09375 -1.71875 C 10.832031 -3.425781 8.316406 -5.960938 6.546875 -9.328125 C 4.773438 -12.703125 3.890625 -16.8125 3.890625 -21.65625 C 3.890625 -26.582031 4.816406 -30.734375 6.671875 -34.109375 C 8.535156 -37.492188 11.050781 -40.015625 14.21875 -41.671875 C 17.394531 -43.335938 20.960938 -44.171875 24.921875 -44.171875 C 31.046875 -44.171875 35.738281 -42.546875 39 -39.296875 C 42.257812 -36.046875 43.890625 -31.28125 43.890625 -25 C 43.890625 -22.71875 43.8125 -20.945312 43.65625 -19.6875 Z M 33.484375 -26.25 C 33.378906 -29.550781 32.613281 -31.953125 31.1875 -33.453125 C 29.757812 -34.960938 27.671875 -35.71875 24.921875 -35.71875 C 19.410156 -35.71875 16.171875 -32.5625 15.203125 -26.25 Z M 33.484375 -26.25 "/></g></g></g><g fill="#b9e185" fill-opacity="1"><g transform="translate(287.687064, 118.376335)"><g><path d="M 21.421875 0.828125 C 17.984375 0.828125 14.945312 -0.00390625 12.3125 -1.671875 C 9.6875 -3.335938 7.625 -5.851562 6.125 -9.21875 C 4.632812 -12.582031 3.890625 -16.726562 3.890625 -21.65625 C 3.890625 -26.601562 4.65625 -30.757812 6.1875 -34.125 C 7.71875 -37.5 9.835938 -40.015625 12.546875 -41.671875 C 15.265625 -43.335938 18.40625 -44.171875 21.96875 -44.171875 C 24.664062 -44.171875 27.003906 -43.703125 28.984375 -42.765625 C 30.960938 -41.835938 32.632812 -40.394531 34 -38.4375 L 34.8125 -38.625 L 34.8125 -60.75 L 45.703125 -60.75 L 45.703125 0 L 34.8125 0 L 34.8125 -5.625 L 34 -5.78125 C 32.789062 -3.738281 31.132812 -2.125 29.03125 -0.9375 C 26.9375 0.238281 24.398438 0.828125 21.421875 0.828125 Z M 24.953125 -8.40625 C 28.015625 -8.40625 30.4375 -9.5 32.21875 -11.6875 C 34 -13.875 34.890625 -17.195312 34.890625 -21.65625 C 34.890625 -26.101562 34 -29.425781 32.21875 -31.625 C 30.4375 -33.832031 28.015625 -34.9375 24.953125 -34.9375 C 21.753906 -34.9375 19.3125 -33.867188 17.625 -31.734375 C 15.9375 -29.597656 15.09375 -26.238281 15.09375 -21.65625 C 15.09375 -17.09375 15.9375 -13.742188 17.625 -11.609375 C 19.3125 -9.472656 21.753906 -8.40625 24.953125 -8.40625 Z M 24.953125 -8.40625 "/></g></g></g><g fill="#b9e185" fill-opacity="1"><g transform="translate(177.010038, 172.632562)"><g><path d="M 30.296875 0.828125 C 24.765625 0.828125 20.648438 -1.242188 17.953125 -5.390625 L 17.140625 -5.234375 L 17.140625 0 L 6.25 0 L 6.25 -60.75 L 17.140625 -60.75 L 17.140625 -38.234375 L 17.953125 -38.078125 C 19.453125 -40.148438 21.21875 -41.679688 23.25 -42.671875 C 25.28125 -43.671875 27.707031 -44.171875 30.53125 -44.171875 C 34.039062 -44.171875 37.101562 -43.34375 39.71875 -41.6875 C 42.34375 -40.039062 44.390625 -37.535156 45.859375 -34.171875 C 47.328125 -30.804688 48.0625 -26.632812 48.0625 -21.65625 C 48.0625 -16.726562 47.300781 -12.582031 45.78125 -9.21875 C 44.257812 -5.851562 42.160156 -3.335938 39.484375 -1.671875 C 36.816406 -0.00390625 33.753906 0.828125 30.296875 0.828125 Z M 27 -8.40625 C 30.195312 -8.40625 32.632812 -9.472656 34.3125 -11.609375 C 35.988281 -13.742188 36.828125 -17.09375 36.828125 -21.65625 C 36.828125 -26.238281 35.988281 -29.597656 34.3125 -31.734375 C 32.632812 -33.867188 30.195312 -34.9375 27 -34.9375 C 23.9375 -34.9375 21.503906 -33.832031 19.703125 -31.625 C 17.910156 -29.425781 17.015625 -26.101562 17.015625 -21.65625 C 17.015625 -17.195312 17.910156 -13.875 19.703125 -11.6875 C 21.503906 -9.5 23.9375 -8.40625 27 -8.40625 Z M 27 -8.40625 "/></g></g></g><g fill="#b9e185" fill-opacity="1"><g transform="translate(224.529132, 172.632562)"><g><path d="M 16.90625 0.828125 C 14.125 0.828125 11.710938 0.316406 9.671875 -0.703125 C 7.628906 -1.722656 6.054688 -3.222656 4.953125 -5.203125 C 3.847656 -7.179688 3.296875 -9.5625 3.296875 -12.34375 C 3.296875 -14.90625 3.847656 -17.054688 4.953125 -18.796875 C 6.054688 -20.546875 7.757812 -21.976562 10.0625 -23.09375 C 12.363281 -24.207031 15.375 -25.0625 19.09375 -25.65625 C 21.6875 -26.082031 23.65625 -26.539062 25 -27.03125 C 26.351562 -27.53125 27.265625 -28.09375 27.734375 -28.71875 C 28.210938 -29.351562 28.453125 -30.15625 28.453125 -31.125 C 28.453125 -32.507812 27.96875 -33.566406 27 -34.296875 C 26.03125 -35.035156 24.421875 -35.40625 22.171875 -35.40625 C 19.753906 -35.40625 17.457031 -34.867188 15.28125 -33.796875 C 13.113281 -32.722656 11.226562 -31.304688 9.625 -29.546875 L 8.84375 -29.546875 L 4.28125 -36.4375 C 6.476562 -38.863281 9.160156 -40.757812 12.328125 -42.125 C 15.503906 -43.488281 18.96875 -44.171875 22.71875 -44.171875 C 28.457031 -44.171875 32.609375 -42.953125 35.171875 -40.515625 C 37.742188 -38.078125 39.03125 -34.617188 39.03125 -30.140625 L 39.03125 -11.3125 C 39.03125 -9.375 39.878906 -8.40625 41.578125 -8.40625 C 42.234375 -8.40625 42.875 -8.523438 43.5 -8.765625 L 44.046875 -8.609375 L 44.84375 -1.015625 C 44.238281 -0.628906 43.398438 -0.3125 42.328125 -0.0625 C 41.253906 0.1875 40.070312 0.3125 38.78125 0.3125 C 36.1875 0.3125 34.160156 -0.179688 32.703125 -1.171875 C 31.253906 -2.171875 30.21875 -3.734375 29.59375 -5.859375 L 28.765625 -5.9375 C 26.640625 -1.425781 22.6875 0.828125 16.90625 0.828125 Z M 20.359375 -7.3125 C 22.867188 -7.3125 24.878906 -8.15625 26.390625 -9.84375 C 27.898438 -11.53125 28.65625 -13.882812 28.65625 -16.90625 L 28.65625 -21.296875 L 27.90625 -21.453125 C 27.25 -20.929688 26.390625 -20.492188 25.328125 -20.140625 C 24.265625 -19.785156 22.738281 -19.4375 20.75 -19.09375 C 18.394531 -18.707031 16.695312 -18.035156 15.65625 -17.078125 C 14.625 -16.117188 14.109375 -14.765625 14.109375 -13.015625 C 14.109375 -11.148438 14.65625 -9.734375 15.75 -8.765625 C 16.851562 -7.796875 18.390625 -7.3125 20.359375 -7.3125 Z M 20.359375 -7.3125 "/></g></g></g><g fill="#b9e185" fill-opacity="1"><g transform="translate(265.804629, 172.632562)"><g><path d="M 25.265625 0.828125 C 21.078125 0.828125 17.367188 -0.0390625 14.140625 -1.78125 C 10.921875 -3.53125 8.40625 -6.09375 6.59375 -9.46875 C 4.789062 -12.851562 3.890625 -16.914062 3.890625 -21.65625 C 3.890625 -26.425781 4.789062 -30.5 6.59375 -33.875 C 8.40625 -37.257812 10.910156 -39.820312 14.109375 -41.5625 C 17.304688 -43.300781 20.960938 -44.171875 25.078125 -44.171875 C 34.210938 -44.171875 40.066406 -40.859375 42.640625 -34.234375 L 35.171875 -28.890625 L 34.34375 -28.890625 C 33.457031 -30.929688 32.300781 -32.445312 30.875 -33.4375 C 29.445312 -34.4375 27.515625 -34.9375 25.078125 -34.9375 C 21.929688 -34.9375 19.476562 -33.847656 17.71875 -31.671875 C 15.96875 -29.492188 15.09375 -26.15625 15.09375 -21.65625 C 15.09375 -17.195312 15.984375 -13.875 17.765625 -11.6875 C 19.546875 -9.5 22.046875 -8.40625 25.265625 -8.40625 C 27.628906 -8.40625 29.628906 -9.039062 31.265625 -10.3125 C 32.898438 -11.582031 34.070312 -13.410156 34.78125 -15.796875 L 35.609375 -15.875 L 43.34375 -11.625 C 42.25 -7.957031 40.210938 -4.960938 37.234375 -2.640625 C 34.265625 -0.328125 30.273438 0.828125 25.265625 0.828125 Z M 25.265625 0.828125 "/></g></g></g><g fill="#b9e185" fill-opacity="1"><g transform="translate(306.058401, 172.632562)"><g><path d="M 6.25 0 L 6.25 -60.75 L 17.140625 -60.75 L 17.140625 -27.03125 L 18.203125 -27.03125 L 30.734375 -43.34375 L 41.78125 -43.34375 L 41.78125 -42.4375 L 27.03125 -23.421875 L 43.421875 -0.984375 L 43.421875 0 L 31.953125 0 L 18.203125 -18.28125 L 17.140625 -18.28125 L 17.140625 0 Z M 6.25 0 "/></g></g></g></svg>