<svg xmlns="http://www.w3.org/2000/svg" xmlns:xlink="http://www.w3.org/1999/xlink" width="500" zoomAndPan="magnify" viewBox="0 0 375 374.999991" height="500" preserveAspectRatio="xMidYMid meet" version="1.0"><defs><g/><clipPath id="d69379c73a"><path d="M 304 184.621094 L 326.195312 184.621094 L 326.195312 255.429688 L 304 255.429688 Z M 304 184.621094 " clip-rule="nonzero"/></clipPath><clipPath id="e1a1562ed4"><path d="M 49.59375 188.0625 L 72 188.0625 L 72 258.871094 L 49.59375 258.871094 Z M 49.59375 188.0625 " clip-rule="nonzero"/></clipPath><clipPath id="c4105e666f"><path d="M 274 192 L 295 192 L 295 253 L 274 253 Z M 274 192 " clip-rule="nonzero"/></clipPath><clipPath id="31fc125ea5"><path d="M 306.160156 206.574219 L 282.144531 254.941406 L 252.585938 240.265625 L 276.601562 191.898438 Z M 306.160156 206.574219 " clip-rule="nonzero"/></clipPath><clipPath id="1a1cb28ab5"><path d="M 306.160156 206.574219 L 282.144531 254.941406 L 252.585938 240.265625 L 276.601562 191.898438 Z M 306.160156 206.574219 " clip-rule="nonzero"/></clipPath><clipPath id="ee475e76d6"><path d="M 79 193 L 102 193 L 102 253 L 79 253 Z M 79 193 " clip-rule="nonzero"/></clipPath><clipPath id="0b223a8de1"><path d="M 68.964844 241.835938 L 88.160156 191.363281 L 119.003906 203.089844 L 99.8125 253.566406 Z M 68.964844 241.835938 " clip-rule="nonzero"/></clipPath><clipPath id="5441397ed6"><path d="M 68.964844 241.835938 L 88.160156 191.363281 L 119.003906 203.089844 L 99.8125 253.566406 Z M 68.964844 241.835938 " clip-rule="nonzero"/></clipPath></defs><rect x="-37.5" width="450" fill="#ffffff" y="-37.499999" height="449.999989" fill-opacity="1"/><rect x="-37.5" width="450" fill="#1977a2" y="-37.499999" height="449.999989" fill-opacity="1"/><g clip-path="url(#d69379c73a)"><path fill="#ffde82" d="M 306.035156 191.445312 L 304.03125 191.445312 L 304.03125 183.429688 L 306.035156 183.429688 C 312.675781 183.429688 318.058594 188.8125 318.058594 195.453125 L 318.058594 209.484375 C 318.058594 210.746094 318.652344 211.933594 319.664062 212.691406 L 324.472656 216.296875 C 325.4375 217.019531 326.023438 218.136719 326.074219 219.339844 C 326.125 220.539062 325.628906 221.703125 324.730469 222.5 L 319.40625 227.234375 C 318.550781 227.996094 318.058594 229.085938 318.058594 230.230469 L 318.058594 243.554688 C 318.058594 250.195312 312.675781 255.582031 306.035156 255.582031 L 304.03125 255.582031 L 304.03125 247.5625 L 306.035156 247.5625 C 308.25 247.5625 310.042969 245.769531 310.042969 243.554688 L 310.042969 230.230469 C 310.042969 226.792969 311.511719 223.523438 314.082031 221.242188 L 315.738281 219.769531 L 314.851562 219.105469 C 311.824219 216.832031 310.042969 213.269531 310.042969 209.484375 L 310.042969 195.453125 C 310.042969 193.238281 308.25 191.445312 306.035156 191.445312 Z M 306.035156 191.445312 " fill-opacity="1" fill-rule="evenodd"/></g><g clip-path="url(#e1a1562ed4)"><path fill="#ffde82" d="M 69.753906 252.046875 L 71.757812 252.046875 L 71.757812 260.0625 L 69.753906 260.0625 C 63.113281 260.0625 57.730469 254.679688 57.730469 248.035156 L 57.730469 234.007812 C 57.730469 232.746094 57.136719 231.558594 56.125 230.800781 L 51.316406 227.191406 C 50.351562 226.472656 49.765625 225.355469 49.714844 224.152344 C 49.664062 222.949219 50.15625 221.789062 51.058594 220.988281 L 56.382812 216.257812 C 57.238281 215.496094 57.730469 214.40625 57.730469 213.261719 L 57.730469 199.933594 C 57.730469 193.292969 63.113281 187.910156 69.753906 187.910156 L 71.757812 187.910156 L 71.757812 195.925781 L 69.753906 195.925781 C 67.539062 195.925781 65.746094 197.722656 65.746094 199.933594 L 65.746094 213.261719 C 65.746094 216.695312 64.277344 219.96875 61.707031 222.25 L 60.050781 223.722656 L 60.9375 224.386719 C 63.964844 226.65625 65.746094 230.222656 65.746094 234.007812 L 65.746094 248.035156 C 65.746094 250.25 67.539062 252.046875 69.753906 252.046875 Z M 69.753906 252.046875 " fill-opacity="1" fill-rule="evenodd"/></g><g fill="#f4f4f4" fill-opacity="1"><g transform="translate(145.107871, 250.698132)"><g><path d="M 2.421875 0 L 2.421875 -6.265625 L 0.28125 -6.265625 L 0.28125 -7.34375 L 5.90625 -7.34375 L 5.90625 -6.265625 L 3.765625 -6.265625 L 3.765625 0 Z M 2.421875 0 "/></g></g></g><g fill="#f4f4f4" fill-opacity="1"><g transform="translate(154.862209, 250.698132)"><g><path d="M 0.71875 0 L 0.71875 -7.34375 L 5.5 -7.34375 L 5.5 -6.265625 L 2.0625 -6.265625 L 2.0625 -4.25 L 5.1875 -4.25 L 5.1875 -3.203125 L 2.0625 -3.203125 L 2.0625 -1.078125 L 5.5 -1.078125 L 5.5 0 Z M 0.71875 0 "/></g></g></g><g fill="#f4f4f4" fill-opacity="1"><g transform="translate(164.480351, 250.698132)"><g><path d="M 4.03125 0.125 C 3.289062 0.125 2.65625 -0.03125 2.125 -0.34375 C 1.59375 -0.664062 1.179688 -1.109375 0.890625 -1.671875 C 0.609375 -2.242188 0.46875 -2.90625 0.46875 -3.65625 C 0.46875 -4.40625 0.609375 -5.066406 0.890625 -5.640625 C 1.179688 -6.210938 1.59375 -6.660156 2.125 -6.984375 C 2.65625 -7.304688 3.289062 -7.46875 4.03125 -7.46875 C 4.914062 -7.46875 5.640625 -7.25 6.203125 -6.8125 C 6.765625 -6.375 7.113281 -5.757812 7.25 -4.96875 L 5.78125 -4.96875 C 5.6875 -5.363281 5.488281 -5.675781 5.1875 -5.90625 C 4.894531 -6.132812 4.503906 -6.25 4.015625 -6.25 C 3.335938 -6.25 2.804688 -6.015625 2.421875 -5.546875 C 2.035156 -5.085938 1.84375 -4.457031 1.84375 -3.65625 C 1.84375 -2.851562 2.035156 -2.222656 2.421875 -1.765625 C 2.804688 -1.304688 3.335938 -1.078125 4.015625 -1.078125 C 4.503906 -1.078125 4.894531 -1.179688 5.1875 -1.390625 C 5.488281 -1.609375 5.6875 -1.90625 5.78125 -2.28125 L 7.25 -2.28125 C 7.113281 -1.53125 6.765625 -0.941406 6.203125 -0.515625 C 5.640625 -0.0859375 4.914062 0.125 4.03125 0.125 Z M 4.03125 0.125 "/></g></g></g><g fill="#f4f4f4" fill-opacity="1"><g transform="translate(175.764262, 250.698132)"><g><path d="M 0.71875 0 L 0.71875 -7.34375 L 2.0625 -7.34375 L 2.0625 -4.28125 L 5.34375 -4.28125 L 5.34375 -7.34375 L 6.6875 -7.34375 L 6.6875 0 L 5.34375 0 L 5.34375 -3.203125 L 2.0625 -3.203125 L 2.0625 0 Z M 0.71875 0 "/></g></g></g><g fill="#f4f4f4" fill-opacity="1"><g transform="translate(186.723398, 250.698132)"><g><path d="M 0.71875 0 L 0.71875 -7.34375 L 2.0625 -7.34375 L 5.5 -2.171875 L 5.5 -7.34375 L 6.84375 -7.34375 L 6.84375 0 L 5.5 0 L 2.0625 -5.15625 L 2.0625 0 Z M 0.71875 0 "/></g></g></g><g fill="#f4f4f4" fill-opacity="1"><g transform="translate(197.839685, 250.698132)"><g><path d="M 4.15625 0.125 C 3.414062 0.125 2.769531 -0.0351562 2.21875 -0.359375 C 1.675781 -0.679688 1.25 -1.125 0.9375 -1.6875 C 0.625 -2.257812 0.46875 -2.921875 0.46875 -3.671875 C 0.46875 -4.421875 0.625 -5.078125 0.9375 -5.640625 C 1.25 -6.210938 1.675781 -6.660156 2.21875 -6.984375 C 2.769531 -7.304688 3.414062 -7.46875 4.15625 -7.46875 C 4.882812 -7.46875 5.523438 -7.304688 6.078125 -6.984375 C 6.628906 -6.660156 7.054688 -6.210938 7.359375 -5.640625 C 7.671875 -5.078125 7.828125 -4.421875 7.828125 -3.671875 C 7.828125 -2.921875 7.671875 -2.257812 7.359375 -1.6875 C 7.054688 -1.125 6.628906 -0.679688 6.078125 -0.359375 C 5.523438 -0.0351562 4.882812 0.125 4.15625 0.125 Z M 4.15625 -1.078125 C 4.851562 -1.078125 5.410156 -1.304688 5.828125 -1.765625 C 6.242188 -2.234375 6.453125 -2.867188 6.453125 -3.671875 C 6.453125 -4.472656 6.242188 -5.101562 5.828125 -5.5625 C 5.410156 -6.03125 4.851562 -6.265625 4.15625 -6.265625 C 3.457031 -6.265625 2.894531 -6.03125 2.46875 -5.5625 C 2.050781 -5.101562 1.84375 -4.472656 1.84375 -3.671875 C 1.84375 -2.867188 2.050781 -2.234375 2.46875 -1.765625 C 2.894531 -1.304688 3.457031 -1.078125 4.15625 -1.078125 Z M 4.15625 -1.078125 "/></g></g></g><g fill="#f4f4f4" fill-opacity="1"><g transform="translate(209.68932, 250.698132)"><g><path d="M 0.71875 0 L 0.71875 -7.34375 L 2.0625 -7.34375 L 2.0625 -1.046875 L 5.3125 -1.046875 L 5.3125 0 Z M 0.71875 0 "/></g></g></g><g fill="#f4f4f4" fill-opacity="1"><g transform="translate(219.024597, 250.698132)"><g><path d="M 4.15625 0.125 C 3.414062 0.125 2.769531 -0.0351562 2.21875 -0.359375 C 1.675781 -0.679688 1.25 -1.125 0.9375 -1.6875 C 0.625 -2.257812 0.46875 -2.921875 0.46875 -3.671875 C 0.46875 -4.421875 0.625 -5.078125 0.9375 -5.640625 C 1.25 -6.210938 1.675781 -6.660156 2.21875 -6.984375 C 2.769531 -7.304688 3.414062 -7.46875 4.15625 -7.46875 C 4.882812 -7.46875 5.523438 -7.304688 6.078125 -6.984375 C 6.628906 -6.660156 7.054688 -6.210938 7.359375 -5.640625 C 7.671875 -5.078125 7.828125 -4.421875 7.828125 -3.671875 C 7.828125 -2.921875 7.671875 -2.257812 7.359375 -1.6875 C 7.054688 -1.125 6.628906 -0.679688 6.078125 -0.359375 C 5.523438 -0.0351562 4.882812 0.125 4.15625 0.125 Z M 4.15625 -1.078125 C 4.851562 -1.078125 5.410156 -1.304688 5.828125 -1.765625 C 6.242188 -2.234375 6.453125 -2.867188 6.453125 -3.671875 C 6.453125 -4.472656 6.242188 -5.101562 5.828125 -5.5625 C 5.410156 -6.03125 4.851562 -6.265625 4.15625 -6.265625 C 3.457031 -6.265625 2.894531 -6.03125 2.46875 -5.5625 C 2.050781 -5.101562 1.84375 -4.472656 1.84375 -3.671875 C 1.84375 -2.867188 2.050781 -2.234375 2.46875 -1.765625 C 2.894531 -1.304688 3.457031 -1.078125 4.15625 -1.078125 Z M 4.15625 -1.078125 "/></g></g></g><g fill="#f4f4f4" fill-opacity="1"><g transform="translate(230.874232, 250.698132)"><g><path d="M 3.921875 0.125 C 3.234375 0.125 2.628906 -0.03125 2.109375 -0.34375 C 1.585938 -0.65625 1.179688 -1.09375 0.890625 -1.65625 C 0.609375 -2.21875 0.46875 -2.875 0.46875 -3.625 C 0.46875 -4.382812 0.613281 -5.050781 0.90625 -5.625 C 1.207031 -6.195312 1.632812 -6.644531 2.1875 -6.96875 C 2.738281 -7.300781 3.390625 -7.46875 4.140625 -7.46875 C 5.003906 -7.46875 5.71875 -7.257812 6.28125 -6.84375 C 6.84375 -6.4375 7.207031 -5.867188 7.375 -5.140625 L 5.875 -5.140625 C 5.769531 -5.484375 5.566406 -5.75 5.265625 -5.9375 C 4.972656 -6.132812 4.597656 -6.234375 4.140625 -6.234375 C 3.410156 -6.234375 2.84375 -6 2.4375 -5.53125 C 2.039062 -5.0625 1.84375 -4.421875 1.84375 -3.609375 C 1.84375 -2.804688 2.039062 -2.179688 2.4375 -1.734375 C 2.832031 -1.285156 3.367188 -1.0625 4.046875 -1.0625 C 4.710938 -1.0625 5.210938 -1.242188 5.546875 -1.609375 C 5.890625 -1.972656 6.097656 -2.445312 6.171875 -3.03125 L 4.3125 -3.03125 L 4.3125 -4.03125 L 7.515625 -4.03125 L 7.515625 0 L 6.28125 0 L 6.171875 -0.96875 C 5.929688 -0.613281 5.632812 -0.34375 5.28125 -0.15625 C 4.925781 0.03125 4.472656 0.125 3.921875 0.125 Z M 3.921875 0.125 "/></g></g></g><g fill="#f4f4f4" fill-opacity="1"><g transform="translate(242.535298, 250.698132)"><g><path d="M 2.609375 0 L 2.609375 -2.609375 L 0.140625 -7.34375 L 1.671875 -7.34375 L 3.296875 -3.953125 L 4.90625 -7.34375 L 6.40625 -7.34375 L 3.953125 -2.609375 L 3.953125 0 Z M 2.609375 0 "/></g></g></g><g fill="#ffde82" fill-opacity="1"><g transform="translate(99.360291, 232.06683)"><g><path d="M 15.28125 -23.8125 C 15.851562 -23.8125 16.335938 -23.628906 16.734375 -23.265625 C 17.140625 -22.898438 17.34375 -22.46875 17.34375 -21.96875 L 17.34375 -1.828125 C 17.34375 -1.203125 17.125 -0.738281 16.6875 -0.4375 C 16.25 -0.144531 15.78125 0 15.28125 0 C 14.757812 0 14.28125 -0.144531 13.84375 -0.4375 C 13.40625 -0.738281 13.1875 -1.191406 13.1875 -1.796875 L 13.1875 -5.046875 L 2.390625 -5.046875 C 1.566406 -5.046875 0.929688 -5.222656 0.484375 -5.578125 C 0.0351562 -5.941406 -0.1875 -6.410156 -0.1875 -6.984375 C -0.1875 -7.265625 -0.148438 -7.503906 -0.078125 -7.703125 C -0.00390625 -7.898438 0.109375 -8.160156 0.265625 -8.484375 L 7.4375 -22.796875 C 7.613281 -23.148438 7.863281 -23.40625 8.1875 -23.5625 C 8.507812 -23.726562 8.859375 -23.8125 9.234375 -23.8125 C 9.648438 -23.8125 10.046875 -23.691406 10.421875 -23.453125 C 10.796875 -23.210938 11.054688 -22.878906 11.203125 -22.453125 C 11.359375 -22.035156 11.285156 -21.53125 10.984375 -20.9375 L 4.9375 -8.671875 L 13.1875 -8.671875 L 13.1875 -21.96875 C 13.1875 -22.46875 13.378906 -22.898438 13.765625 -23.265625 C 14.160156 -23.628906 14.664062 -23.8125 15.28125 -23.8125 Z M 15.28125 -23.8125 "/></g></g></g><g fill="#ffffff" fill-opacity="1"><g transform="translate(123.500344, 232.06683)"><g><path d="M 6.46875 -6.609375 L 6.46875 -1.90625 C 6.46875 -1.257812 6.234375 -0.78125 5.765625 -0.46875 C 5.304688 -0.15625 4.816406 0 4.296875 0 C 3.742188 0 3.25 -0.15625 2.8125 -0.46875 C 2.382812 -0.78125 2.171875 -1.25 2.171875 -1.875 L 2.171875 -21.859375 C 2.171875 -22.429688 2.378906 -22.898438 2.796875 -23.265625 C 3.222656 -23.628906 3.734375 -23.8125 4.328125 -23.8125 L 11.953125 -23.8125 C 14.023438 -23.8125 15.796875 -23.441406 17.265625 -22.703125 C 18.734375 -21.972656 19.851562 -20.953125 20.625 -19.640625 C 21.40625 -18.328125 21.796875 -16.789062 21.796875 -15.03125 C 21.796875 -12.507812 20.921875 -10.472656 19.171875 -8.921875 C 17.429688 -7.378906 14.988281 -6.609375 11.84375 -6.609375 Z M 6.46875 -20.109375 L 6.46875 -10.3125 L 11.84375 -10.3125 C 13.6875 -10.3125 15.09375 -10.738281 16.0625 -11.59375 C 17.039062 -12.457031 17.53125 -13.601562 17.53125 -15.03125 C 17.53125 -16.570312 17.050781 -17.800781 16.09375 -18.71875 C 15.132812 -19.644531 13.769531 -20.109375 12 -20.109375 Z M 6.46875 -20.109375 "/></g></g></g><g fill="#ffffff" fill-opacity="1"><g transform="translate(148.914509, 232.06683)"><g><path d="M 17.375 -19.03125 C 18.019531 -19.03125 18.535156 -18.847656 18.921875 -18.484375 C 19.316406 -18.117188 19.515625 -17.648438 19.515625 -17.078125 L 19.515625 -1.9375 C 19.515625 -1.363281 19.316406 -0.894531 18.921875 -0.53125 C 18.535156 -0.175781 18.019531 0 17.375 0 C 16.75 0 16.265625 -0.140625 15.921875 -0.421875 C 15.578125 -0.710938 15.363281 -1.09375 15.28125 -1.5625 C 14.4375 -0.894531 13.488281 -0.40625 12.4375 -0.09375 C 11.394531 0.21875 10.398438 0.375 9.453125 0.375 C 7.660156 0.375 6.109375 -0.0351562 4.796875 -0.859375 C 3.492188 -1.679688 2.492188 -2.835938 1.796875 -4.328125 C 1.097656 -5.828125 0.75 -7.570312 0.75 -9.5625 C 0.75 -11.507812 1.132812 -13.21875 1.90625 -14.6875 C 2.675781 -16.15625 3.753906 -17.304688 5.140625 -18.140625 C 6.523438 -18.972656 8.125 -19.390625 9.9375 -19.390625 C 10.738281 -19.390625 11.625 -19.238281 12.59375 -18.9375 C 13.5625 -18.644531 14.457031 -18.175781 15.28125 -17.53125 C 15.382812 -17.976562 15.609375 -18.335938 15.953125 -18.609375 C 16.304688 -18.890625 16.78125 -19.03125 17.375 -19.03125 Z M 9.90625 -3.40625 C 11 -3.40625 12.054688 -3.644531 13.078125 -4.125 C 14.097656 -4.613281 14.820312 -5.332031 15.25 -6.28125 L 15.25 -12.75 C 14.769531 -13.664062 14.054688 -14.375 13.109375 -14.875 C 12.171875 -15.375 11.210938 -15.625 10.234375 -15.625 C 8.671875 -15.625 7.410156 -15.050781 6.453125 -13.90625 C 5.492188 -12.757812 5.015625 -11.300781 5.015625 -9.53125 C 5.015625 -7.6875 5.460938 -6.203125 6.359375 -5.078125 C 7.253906 -3.960938 8.4375 -3.40625 9.90625 -3.40625 Z M 9.90625 -3.40625 "/></g></g></g><g fill="#ffffff" fill-opacity="1"><g transform="translate(173.431719, 232.06683)"><g><path d="M 10.09375 -19.03125 C 10.757812 -19.03125 11.289062 -18.882812 11.6875 -18.59375 C 12.09375 -18.3125 12.296875 -17.84375 12.296875 -17.1875 C 12.296875 -16.59375 12.09375 -16.117188 11.6875 -15.765625 C 11.289062 -15.421875 10.757812 -15.25 10.09375 -15.25 C 8.519531 -15.25 7.414062 -14.6875 6.78125 -13.5625 C 6.144531 -12.445312 5.828125 -10.925781 5.828125 -9 L 5.828125 -1.90625 C 5.828125 -1.351562 5.628906 -0.894531 5.234375 -0.53125 C 4.835938 -0.175781 4.351562 0 3.78125 0 C 3.125 0 2.597656 -0.175781 2.203125 -0.53125 C 1.804688 -0.894531 1.609375 -1.351562 1.609375 -1.90625 L 1.609375 -17.125 C 1.609375 -17.71875 1.835938 -18.179688 2.296875 -18.515625 C 2.753906 -18.859375 3.25 -19.03125 3.78125 -19.03125 C 4.300781 -19.03125 4.769531 -18.863281 5.1875 -18.53125 C 5.613281 -18.207031 5.828125 -17.738281 5.828125 -17.125 L 5.828125 -16.890625 C 6.378906 -17.617188 7.015625 -18.15625 7.734375 -18.5 C 8.460938 -18.851562 9.25 -19.03125 10.09375 -19.03125 Z M 10.09375 -19.03125 "/></g></g></g><g fill="#ffffff" fill-opacity="1"><g transform="translate(187.521874, 232.06683)"><g><path d="M 17.375 -19.03125 C 18.019531 -19.03125 18.535156 -18.847656 18.921875 -18.484375 C 19.316406 -18.117188 19.515625 -17.648438 19.515625 -17.078125 L 19.515625 -1.9375 C 19.515625 -1.363281 19.316406 -0.894531 18.921875 -0.53125 C 18.535156 -0.175781 18.019531 0 17.375 0 C 16.75 0 16.265625 -0.140625 15.921875 -0.421875 C 15.578125 -0.710938 15.363281 -1.09375 15.28125 -1.5625 C 14.4375 -0.894531 13.488281 -0.40625 12.4375 -0.09375 C 11.394531 0.21875 10.398438 0.375 9.453125 0.375 C 7.660156 0.375 6.109375 -0.0351562 4.796875 -0.859375 C 3.492188 -1.679688 2.492188 -2.835938 1.796875 -4.328125 C 1.097656 -5.828125 0.75 -7.570312 0.75 -9.5625 C 0.75 -11.507812 1.132812 -13.21875 1.90625 -14.6875 C 2.675781 -16.15625 3.753906 -17.304688 5.140625 -18.140625 C 6.523438 -18.972656 8.125 -19.390625 9.9375 -19.390625 C 10.738281 -19.390625 11.625 -19.238281 12.59375 -18.9375 C 13.5625 -18.644531 14.457031 -18.175781 15.28125 -17.53125 C 15.382812 -17.976562 15.609375 -18.335938 15.953125 -18.609375 C 16.304688 -18.890625 16.78125 -19.03125 17.375 -19.03125 Z M 9.90625 -3.40625 C 11 -3.40625 12.054688 -3.644531 13.078125 -4.125 C 14.097656 -4.613281 14.820312 -5.332031 15.25 -6.28125 L 15.25 -12.75 C 14.769531 -13.664062 14.054688 -14.375 13.109375 -14.875 C 12.171875 -15.375 11.210938 -15.625 10.234375 -15.625 C 8.671875 -15.625 7.410156 -15.050781 6.453125 -13.90625 C 5.492188 -12.757812 5.015625 -11.300781 5.015625 -9.53125 C 5.015625 -7.6875 5.460938 -6.203125 6.359375 -5.078125 C 7.253906 -3.960938 8.4375 -3.40625 9.90625 -3.40625 Z M 9.90625 -3.40625 "/></g></g></g><g fill="#ffffff" fill-opacity="1"><g transform="translate(212.039084, 232.06683)"><g><path d="M 27.359375 -19.390625 C 29.097656 -19.390625 30.578125 -19.007812 31.796875 -18.25 C 33.023438 -17.5 33.960938 -16.441406 34.609375 -15.078125 C 35.253906 -13.722656 35.578125 -12.148438 35.578125 -10.359375 L 35.578125 -1.9375 C 35.578125 -1.363281 35.394531 -0.894531 35.03125 -0.53125 C 34.675781 -0.175781 34.148438 0 33.453125 0 C 32.828125 0 32.3125 -0.175781 31.90625 -0.53125 C 31.507812 -0.894531 31.3125 -1.363281 31.3125 -1.9375 L 31.3125 -10.421875 C 31.3125 -11.972656 30.941406 -13.234375 30.203125 -14.203125 C 29.472656 -15.171875 28.328125 -15.65625 26.765625 -15.65625 C 25.960938 -15.65625 25.117188 -15.40625 24.234375 -14.90625 C 23.347656 -14.414062 22.597656 -13.695312 21.984375 -12.75 C 21.378906 -11.800781 21.078125 -10.640625 21.078125 -9.265625 L 21.078125 -1.9375 C 21.078125 -1.363281 20.894531 -0.894531 20.53125 -0.53125 C 20.175781 -0.175781 19.660156 0 18.984375 0 C 18.359375 0 17.835938 -0.175781 17.421875 -0.53125 C 17.015625 -0.894531 16.8125 -1.363281 16.8125 -1.9375 L 16.8125 -10.421875 C 16.8125 -11.972656 16.441406 -13.234375 15.703125 -14.203125 C 14.972656 -15.171875 13.828125 -15.65625 12.265625 -15.65625 C 11.785156 -15.65625 11.234375 -15.523438 10.609375 -15.265625 C 9.992188 -15.003906 9.382812 -14.613281 8.78125 -14.09375 C 8.1875 -13.570312 7.695312 -12.910156 7.3125 -12.109375 C 6.925781 -11.304688 6.734375 -10.359375 6.734375 -9.265625 L 6.734375 -1.875 C 6.734375 -1.25 6.503906 -0.78125 6.046875 -0.46875 C 5.597656 -0.15625 5.113281 0 4.59375 0 C 4.050781 0 3.566406 -0.15625 3.140625 -0.46875 C 2.710938 -0.78125 2.5 -1.25 2.5 -1.875 L 2.5 -17.125 C 2.5 -17.644531 2.703125 -18.09375 3.109375 -18.46875 C 3.523438 -18.84375 4.019531 -19.03125 4.59375 -19.03125 C 5.238281 -19.03125 5.753906 -18.84375 6.140625 -18.46875 C 6.535156 -18.09375 6.734375 -17.644531 6.734375 -17.125 L 6.734375 -17 C 7.753906 -17.976562 8.796875 -18.617188 9.859375 -18.921875 C 10.929688 -19.234375 11.941406 -19.390625 12.890625 -19.390625 C 14.460938 -19.390625 15.820312 -19.070312 16.96875 -18.4375 C 18.113281 -17.800781 19.023438 -16.9375 19.703125 -15.84375 C 20.472656 -16.789062 21.304688 -17.519531 22.203125 -18.03125 C 23.097656 -18.539062 23.992188 -18.894531 24.890625 -19.09375 C 25.785156 -19.289062 26.609375 -19.390625 27.359375 -19.390625 Z M 27.359375 -19.390625 "/></g></g></g><g fill="#ffffff" fill-opacity="1"><g transform="translate(253.448883, 232.06683)"><g><path d="M 0.484375 -4.453125 C 0.304688 -5.148438 0.46875 -5.707031 0.96875 -6.125 C 1.46875 -6.550781 2.015625 -6.765625 2.609375 -6.765625 C 3.054688 -6.765625 3.453125 -6.632812 3.796875 -6.375 C 4.148438 -6.113281 4.414062 -5.71875 4.59375 -5.1875 C 4.75 -4.738281 5.070312 -4.367188 5.5625 -4.078125 C 6.0625 -3.796875 6.640625 -3.59375 7.296875 -3.46875 C 7.960938 -3.34375 8.632812 -3.28125 9.3125 -3.28125 C 10.65625 -3.28125 11.738281 -3.523438 12.5625 -4.015625 C 13.382812 -4.503906 13.796875 -5.125 13.796875 -5.875 C 13.796875 -6.394531 13.578125 -6.78125 13.140625 -7.03125 C 12.703125 -7.28125 12.128906 -7.453125 11.421875 -7.546875 C 10.710938 -7.648438 9.957031 -7.726562 9.15625 -7.78125 C 8.113281 -7.875 7.085938 -7.992188 6.078125 -8.140625 C 5.066406 -8.296875 4.148438 -8.550781 3.328125 -8.90625 C 2.503906 -9.269531 1.84375 -9.804688 1.34375 -10.515625 C 0.84375 -11.234375 0.59375 -12.203125 0.59375 -13.421875 C 0.59375 -14.617188 0.941406 -15.664062 1.640625 -16.5625 C 2.335938 -17.457031 3.320312 -18.148438 4.59375 -18.640625 C 5.863281 -19.140625 7.332031 -19.390625 9 -19.390625 C 9.976562 -19.390625 11.023438 -19.296875 12.140625 -19.109375 C 13.265625 -18.929688 14.304688 -18.554688 15.265625 -17.984375 C 16.222656 -17.410156 16.925781 -16.523438 17.375 -15.328125 C 17.550781 -14.828125 17.539062 -14.382812 17.34375 -14 C 17.144531 -13.613281 16.851562 -13.316406 16.46875 -13.109375 C 16.082031 -12.910156 15.6875 -12.8125 15.28125 -12.8125 C 14.832031 -12.8125 14.460938 -12.898438 14.171875 -13.078125 C 13.890625 -13.253906 13.648438 -13.554688 13.453125 -13.984375 C 13.234375 -14.503906 12.851562 -14.890625 12.3125 -15.140625 C 11.78125 -15.390625 11.207031 -15.546875 10.59375 -15.609375 C 9.988281 -15.671875 9.457031 -15.703125 9 -15.703125 C 7.757812 -15.703125 6.757812 -15.488281 6 -15.0625 C 5.238281 -14.632812 4.859375 -14.070312 4.859375 -13.375 C 4.859375 -12.78125 5.054688 -12.375 5.453125 -12.15625 C 5.859375 -11.945312 6.398438 -11.820312 7.078125 -11.78125 C 7.765625 -11.75 8.53125 -11.6875 9.375 -11.59375 C 10.425781 -11.46875 11.460938 -11.328125 12.484375 -11.171875 C 13.503906 -11.023438 14.4375 -10.769531 15.28125 -10.40625 C 16.132812 -10.039062 16.804688 -9.503906 17.296875 -8.796875 C 17.796875 -8.085938 18.046875 -7.113281 18.046875 -5.875 C 18.046875 -4.644531 17.675781 -3.554688 16.9375 -2.609375 C 16.207031 -1.671875 15.1875 -0.9375 13.875 -0.40625 C 12.570312 0.113281 11.050781 0.375 9.3125 0.375 C 8.53125 0.375 7.6875 0.316406 6.78125 0.203125 C 5.875 0.0859375 4.988281 -0.132812 4.125 -0.46875 C 3.269531 -0.800781 2.515625 -1.285156 1.859375 -1.921875 C 1.210938 -2.554688 0.753906 -3.398438 0.484375 -4.453125 Z M 0.484375 -4.453125 "/></g></g></g><g clip-path="url(#c4105e666f)"><g clip-path="url(#31fc125ea5)"><g clip-path="url(#1a1cb28ab5)"><path fill="#f4f4f4" d="M 284.371094 207.800781 C 284.582031 208.140625 284.8125 208.542969 285.023438 208.886719 C 285.234375 209.324219 285.425781 209.800781 285.636719 210.242188 L 285.636719 210.335938 C 285.851562 210.871094 286.101562 211.425781 286.351562 212.074219 C 286.5625 212.609375 286.8125 213.257812 286.984375 213.867188 C 287.179688 214.441406 287.3125 215.03125 287.429688 215.566406 L 287.585938 216.214844 C 287.644531 216.484375 287.71875 216.808594 287.738281 217.152344 C 287.777344 217.457031 287.820312 217.859375 287.859375 218.261719 C 287.859375 218.453125 287.878906 218.605469 287.878906 218.796875 C 287.878906 218.988281 287.878906 219.175781 287.917969 219.386719 C 287.957031 219.789062 287.957031 220.171875 287.980469 220.515625 C 287.941406 221.261719 287.886719 222.042969 287.8125 222.769531 C 287.738281 223.304688 287.664062 223.839844 287.570312 224.316406 C 287.492188 224.664062 287.4375 224.96875 287.398438 225.332031 C 287.363281 225.503906 287.34375 225.636719 287.34375 225.828125 C 287.308594 226.097656 287.269531 226.363281 287.230469 226.632812 C 287.15625 226.976562 287.082031 227.320312 287.023438 227.625 L 286.988281 227.894531 L 286.949219 228.160156 C 286.875 228.503906 286.796875 228.847656 286.703125 229.230469 C 286.648438 229.539062 286.535156 229.863281 286.4375 230.148438 L 286.421875 230.1875 C 286.289062 230.550781 286.15625 231.011719 286.003906 231.410156 C 285.925781 231.566406 285.871094 231.773438 285.792969 231.929688 C 285.699219 232.121094 285.625 232.367188 285.527344 232.558594 C 285.246094 233.324219 284.882812 234.148438 284.425781 235.066406 L 284.351562 235.21875 C 284.007812 235.90625 283.648438 236.632812 283.230469 237.378906 C 283.117188 237.609375 282.964844 237.820312 282.851562 238.050781 C 282.773438 238.203125 282.679688 238.300781 282.601562 238.453125 L 282.527344 238.605469 C 282.394531 238.875 282.242188 239.085938 282.109375 239.351562 C 281.957031 239.5625 281.785156 239.8125 281.632812 240.023438 C 281.519531 240.15625 281.421875 240.347656 281.308594 240.480469 C 281.175781 240.652344 281.082031 240.84375 280.964844 240.980469 C 280.8125 241.191406 280.699219 241.417969 280.546875 241.628906 C 280.339844 241.957031 280.089844 242.261719 279.84375 242.570312 L 279.613281 242.835938 L 279.480469 243.007812 C 279.214844 243.355469 278.929688 243.738281 278.605469 244.101562 C 278.339844 244.445312 278.035156 244.769531 277.691406 245.171875 C 277.464844 245.441406 277.214844 245.652344 277.003906 245.882812 C 276.910156 245.976562 276.816406 246.074219 276.71875 246.167969 C 276.375 246.476562 276.054688 246.839844 275.75 247.164062 C 275.558594 247.355469 275.386719 247.605469 275.195312 247.796875 L 275.082031 247.933594 C 275.003906 247.988281 274.96875 248.066406 274.929688 248.140625 C 274.71875 248.5625 274.816406 249.136719 275.125 249.480469 C 275.164062 249.59375 275.238281 249.726562 275.335938 249.824219 C 275.640625 250.164062 275.988281 250.527344 276.371094 250.910156 C 276.523438 251.082031 276.675781 251.253906 276.8125 251.367188 L 276.925781 251.519531 C 277.042969 251.671875 277.175781 251.785156 277.308594 251.898438 C 277.445312 252.015625 277.558594 252.167969 277.710938 252.339844 C 277.980469 252.664062 278.457031 252.757812 278.917969 252.601562 L 279.125 252.5625 C 279.335938 252.523438 279.488281 252.410156 279.660156 252.257812 L 279.792969 252.179688 C 279.964844 252.027344 280.175781 251.890625 280.347656 251.738281 C 280.519531 251.585938 280.710938 251.394531 280.863281 251.277344 C 280.976562 251.144531 281.148438 250.992188 281.300781 250.875 L 281.492188 250.683594 C 281.660156 250.53125 281.796875 250.359375 281.910156 250.226562 C 281.984375 250.167969 282.023438 250.089844 282.101562 250.03125 C 282.308594 249.804688 282.519531 249.574219 282.730469 249.34375 C 283.015625 249.054688 283.320312 248.730469 283.566406 248.425781 C 283.796875 248.15625 284.023438 247.886719 284.253906 247.621094 C 284.519531 247.273438 284.824219 246.949219 285.128906 246.625 C 285.71875 246.011719 286.175781 245.28125 286.652344 244.613281 L 286.804688 244.402344 C 286.9375 244.230469 287.050781 244 287.183594 243.828125 C 287.507812 243.367188 287.851562 242.871094 288.15625 242.355469 L 288.210938 242.238281 C 288.554688 241.644531 288.953125 241.035156 289.257812 240.421875 C 289.351562 240.230469 289.464844 240 289.5625 239.808594 C 289.75 239.425781 289.960938 239.003906 290.1875 238.640625 L 290.304688 238.410156 C 290.417969 238.183594 290.570312 237.972656 290.683594 237.742188 C 290.703125 237.703125 290.703125 237.703125 290.722656 237.664062 C 290.875 237.359375 291.042969 237.015625 291.195312 236.613281 C 291.480469 235.945312 291.707031 235.292969 291.992188 234.625 L 292.085938 234.335938 C 292.296875 233.820312 292.46875 233.378906 292.597656 232.921875 C 292.675781 232.578125 292.789062 232.253906 292.882812 231.871094 L 292.882812 231.582031 C 292.9375 231.371094 292.976562 231.199219 293.035156 230.992188 C 293.222656 230.320312 293.394531 229.59375 293.542969 228.90625 C 293.675781 228.160156 293.808594 227.414062 293.9375 226.667969 C 293.957031 226.535156 293.957031 226.441406 293.976562 226.304688 C 294.238281 224.527344 294.367188 223.113281 294.363281 221.777344 C 294.398438 220.9375 294.359375 220.152344 294.300781 219.40625 C 294.300781 219.214844 294.261719 219.007812 294.261719 218.816406 C 294.261719 218.625 294.242188 218.472656 294.238281 218.28125 C 294.199219 217.878906 294.140625 217.515625 294.121094 217.171875 L 294.101562 217.019531 L 294.121094 217.171875 C 294.0625 216.617188 293.945312 216.085938 293.871094 215.570312 C 293.8125 215.300781 293.753906 215.035156 293.734375 214.785156 C 293.597656 214.003906 293.421875 213.199219 293.191406 212.320312 C 293 211.558594 292.710938 210.792969 292.382812 209.917969 C 292.1875 209.34375 291.882812 208.617188 291.59375 207.855469 C 291.363281 207.261719 291.054688 206.632812 290.671875 205.871094 C 290.457031 205.433594 290.226562 205.03125 289.996094 204.628906 L 289.671875 204.230469 L 289.59375 204.097656 C 289.480469 203.847656 289.308594 203.621094 289.191406 203.371094 C 289.039062 203.105469 288.828125 202.855469 288.675781 202.589844 L 288.578125 202.496094 L 288.445312 202.285156 C 288.25 202 288.023438 201.695312 287.792969 201.386719 C 287.773438 201.332031 287.734375 201.3125 287.675781 201.234375 C 287.5625 201.082031 287.484375 200.949219 287.351562 200.835938 L 287.3125 200.816406 C 287.160156 200.644531 287.023438 200.433594 286.890625 200.226562 C 286.582031 199.785156 286.296875 199.40625 285.929688 198.984375 C 285.683594 198.71875 285.414062 198.492188 285.203125 198.242188 C 284.972656 198.035156 284.78125 197.84375 284.570312 197.59375 C 284.265625 197.253906 283.882812 196.964844 283.554688 196.660156 L 283.421875 196.546875 C 283.25 196.414062 283.132812 196.261719 282.960938 196.128906 C 282.675781 195.84375 282.328125 195.574219 281.984375 195.308594 C 281.871094 195.253906 281.8125 195.175781 281.699219 195.121094 C 281.621094 195.082031 281.5625 195.003906 281.488281 194.96875 L 281.429688 194.890625 C 281.332031 194.796875 281.21875 194.738281 281.160156 194.664062 C 280.722656 194.300781 280.222656 193.957031 279.726562 193.617188 C 279.515625 193.464844 279.285156 193.347656 279.054688 193.234375 C 278.980469 193.195312 278.902344 193.160156 278.824219 193.121094 L 278.75 193.082031 C 278.710938 193.0625 278.671875 193.046875 278.597656 193.007812 C 278.367188 192.894531 278.15625 192.835938 277.890625 192.796875 C 277.753906 192.78125 277.601562 192.800781 277.46875 192.875 C 277.410156 192.894531 277.375 192.875 277.355469 192.914062 C 277.238281 192.953125 277.164062 193.011719 277.050781 193.050781 C 276.859375 193.144531 276.742188 193.28125 276.648438 193.472656 C 276.609375 193.546875 276.535156 193.605469 276.457031 193.664062 C 276.363281 193.757812 276.285156 193.816406 276.230469 193.929688 C 276.078125 194.140625 275.886719 194.332031 275.734375 194.542969 L 275.621094 194.675781 C 275.523438 194.773438 275.410156 194.90625 275.355469 195.023438 C 275.316406 195.097656 275.257812 195.117188 275.21875 195.195312 L 275.183594 195.269531 L 275.105469 195.425781 C 275.085938 195.460938 275.011719 195.519531 274.992188 195.558594 C 274.859375 195.730469 274.707031 195.847656 274.613281 196.039062 C 274.460938 196.34375 274.402344 196.648438 274.5 196.933594 C 274.578125 197.164062 274.671875 197.355469 274.882812 197.507812 C 274.941406 197.582031 275 197.660156 275.074219 197.699219 C 275.324219 197.871094 275.535156 198.023438 275.78125 198.191406 C 275.898438 198.25 275.992188 198.34375 276.148438 198.421875 C 276.492188 198.6875 276.835938 198.953125 277.238281 199.296875 C 277.5625 199.601562 277.945312 199.886719 278.445312 200.324219 C 278.847656 200.667969 279.230469 201.050781 279.574219 201.410156 C 279.671875 201.507812 279.730469 201.582031 279.824219 201.679688 L 280.1875 202.097656 C 280.554688 202.515625 280.917969 202.9375 281.320312 203.375 C 281.570312 203.640625 281.800781 203.945312 282.027344 204.25 C 282.257812 204.558594 282.46875 204.898438 282.699219 205.207031 L 282.777344 205.339844 C 283.160156 205.910156 283.601562 206.558594 283.96875 207.167969 C 284.042969 207.304688 284.214844 207.53125 284.371094 207.800781 Z M 284.371094 207.800781 " fill-opacity="1" fill-rule="nonzero"/></g></g></g><g clip-path="url(#ee475e76d6)"><g clip-path="url(#0b223a8de1)"><g clip-path="url(#5441397ed6)"><path fill="#f4f4f4" d="M 90.53125 238.496094 C 90.289062 238.171875 90.019531 237.796875 89.777344 237.476562 C 89.523438 237.058594 89.285156 236.605469 89.03125 236.1875 L 89.023438 236.09375 C 88.761719 235.582031 88.457031 235.054688 88.144531 234.433594 C 87.882812 233.921875 87.570312 233.300781 87.339844 232.710938 C 87.089844 232.15625 86.898438 231.582031 86.730469 231.0625 L 86.511719 230.429688 C 86.429688 230.167969 86.320312 229.855469 86.269531 229.515625 C 86.199219 229.214844 86.121094 228.816406 86.042969 228.421875 C 86.023438 228.234375 85.988281 228.082031 85.96875 227.890625 C 85.949219 227.703125 85.933594 227.511719 85.871094 227.308594 C 85.792969 226.910156 85.757812 226.53125 85.703125 226.191406 C 85.667969 225.445312 85.644531 224.660156 85.648438 223.929688 C 85.671875 223.390625 85.695312 222.851562 85.742188 222.367188 C 85.78125 222.015625 85.808594 221.707031 85.808594 221.339844 C 85.832031 221.164062 85.835938 221.03125 85.816406 220.839844 C 85.828125 220.570312 85.839844 220.300781 85.851562 220.03125 C 85.894531 219.679688 85.933594 219.332031 85.960938 219.019531 L 85.984375 218.480469 C 86.023438 218.132812 86.066406 217.78125 86.125 217.390625 C 86.148438 217.082031 86.230469 216.746094 86.296875 216.453125 L 86.3125 216.414062 C 86.410156 216.039062 86.496094 215.566406 86.609375 215.152344 C 86.667969 214.992188 86.707031 214.777344 86.765625 214.621094 C 86.84375 214.417969 86.894531 214.164062 86.96875 213.964844 C 87.179688 213.175781 87.457031 212.320312 87.820312 211.363281 L 87.882812 211.203125 C 88.15625 210.484375 88.445312 209.726562 88.789062 208.941406 C 88.878906 208.703125 89.011719 208.480469 89.101562 208.238281 C 89.160156 208.078125 89.246094 207.976562 89.308594 207.816406 L 89.367188 207.65625 C 89.476562 207.375 89.605469 207.152344 89.710938 206.871094 C 89.84375 206.648438 89.988281 206.382812 90.121094 206.160156 C 90.222656 206.015625 90.296875 205.8125 90.398438 205.667969 C 90.515625 205.484375 90.589844 205.285156 90.691406 205.140625 C 90.820312 204.917969 90.914062 204.675781 91.042969 204.453125 C 91.21875 204.109375 91.4375 203.777344 91.652344 203.449219 L 91.855469 203.160156 L 91.972656 202.976562 C 92.203125 202.609375 92.449219 202.199219 92.738281 201.804688 C 92.96875 201.4375 93.238281 201.082031 93.542969 200.648438 C 93.742188 200.359375 93.96875 200.125 94.15625 199.875 C 94.242188 199.773438 94.328125 199.667969 94.410156 199.5625 C 94.722656 199.222656 95.011719 198.828125 95.28125 198.476562 C 95.453125 198.265625 95.597656 198.003906 95.769531 197.792969 L 95.871094 197.648438 C 95.941406 197.585938 95.972656 197.503906 96.003906 197.425781 C 96.167969 196.984375 96.015625 196.425781 95.679688 196.113281 C 95.628906 196.003906 95.539062 195.878906 95.433594 195.792969 C 95.097656 195.480469 94.71875 195.152344 94.300781 194.8125 C 94.128906 194.65625 93.960938 194.5 93.816406 194.398438 L 93.6875 194.257812 C 93.558594 194.117188 93.414062 194.015625 93.269531 193.917969 C 93.125 193.816406 92.992188 193.675781 92.824219 193.519531 C 92.527344 193.222656 92.042969 193.175781 91.601562 193.375 L 91.394531 193.433594 C 91.191406 193.492188 91.050781 193.621094 90.894531 193.789062 L 90.769531 193.878906 C 90.613281 194.050781 90.417969 194.203125 90.261719 194.371094 C 90.105469 194.542969 89.933594 194.75 89.792969 194.878906 C 89.691406 195.023438 89.535156 195.195312 89.394531 195.324219 L 89.226562 195.53125 C 89.070312 195.703125 88.953125 195.886719 88.851562 196.03125 C 88.78125 196.097656 88.75 196.175781 88.679688 196.242188 C 88.496094 196.488281 88.308594 196.738281 88.121094 196.988281 C 87.867188 197.300781 87.59375 197.65625 87.378906 197.984375 C 87.175781 198.273438 86.976562 198.5625 86.773438 198.851562 C 86.542969 199.222656 86.269531 199.574219 86 199.929688 C 85.472656 200.597656 85.085938 201.363281 84.679688 202.078125 L 84.546875 202.300781 C 84.433594 202.488281 84.339844 202.726562 84.226562 202.910156 C 83.949219 203.398438 83.65625 203.929688 83.402344 204.472656 L 83.355469 204.59375 C 83.074219 205.214844 82.734375 205.863281 82.492188 206.503906 C 82.417969 206.703125 82.328125 206.941406 82.25 207.140625 C 82.097656 207.542969 81.929688 207.980469 81.738281 208.363281 L 81.648438 208.605469 C 81.558594 208.84375 81.425781 209.070312 81.335938 209.308594 C 81.320312 209.347656 81.320312 209.347656 81.304688 209.386719 C 81.183594 209.707031 81.046875 210.066406 80.933594 210.480469 C 80.714844 211.175781 80.554688 211.84375 80.335938 212.539062 L 80.269531 212.832031 C 80.113281 213.367188 79.984375 213.824219 79.898438 214.292969 C 79.855469 214.640625 79.773438 214.976562 79.71875 215.367188 L 79.746094 215.652344 C 79.710938 215.867188 79.6875 216.042969 79.652344 216.257812 C 79.53125 216.941406 79.429688 217.679688 79.347656 218.378906 C 79.289062 219.136719 79.230469 219.890625 79.171875 220.644531 C 79.167969 220.78125 79.175781 220.875 79.171875 221.011719 C 79.082031 222.804688 79.089844 224.226562 79.226562 225.554688 C 79.269531 226.394531 79.386719 227.171875 79.519531 227.90625 C 79.539062 228.097656 79.597656 228.304688 79.617188 228.492188 C 79.636719 228.683594 79.671875 228.832031 79.6875 229.023438 C 79.765625 229.417969 79.859375 229.773438 79.914062 230.113281 L 79.949219 230.265625 L 79.914062 230.113281 C 80.027344 230.660156 80.195312 231.179688 80.320312 231.6875 C 80.40625 231.949219 80.488281 232.207031 80.535156 232.453125 C 80.746094 233.21875 80.996094 234 81.3125 234.851562 C 81.578125 235.59375 81.941406 236.324219 82.351562 237.167969 C 82.597656 237.71875 82.976562 238.410156 83.339844 239.140625 C 83.625 239.707031 83.992188 240.304688 84.449219 241.027344 C 84.703125 241.445312 84.972656 241.820312 85.238281 242.195312 L 85.601562 242.5625 L 85.691406 242.6875 C 85.832031 242.925781 86.023438 243.136719 86.164062 243.371094 C 86.34375 243.621094 86.578125 243.847656 86.753906 244.097656 L 86.859375 244.183594 L 87.015625 244.378906 C 87.234375 244.644531 87.492188 244.925781 87.75 245.207031 C 87.773438 245.261719 87.816406 245.277344 87.878906 245.347656 C 88.007812 245.488281 88.097656 245.613281 88.242188 245.714844 L 88.28125 245.730469 C 88.453125 245.886719 88.605469 246.082031 88.761719 246.277344 C 89.109375 246.683594 89.433594 247.035156 89.835938 247.417969 C 90.109375 247.660156 90.398438 247.859375 90.632812 248.085938 C 90.882812 248.273438 91.089844 248.445312 91.324219 248.671875 C 91.664062 248.980469 92.074219 249.230469 92.425781 249.5 L 92.570312 249.601562 C 92.753906 249.714844 92.886719 249.855469 93.070312 249.972656 C 93.382812 250.230469 93.753906 250.460938 94.121094 250.691406 C 94.242188 250.738281 94.304688 250.808594 94.425781 250.855469 C 94.503906 250.886719 94.570312 250.957031 94.648438 250.984375 L 94.714844 251.054688 C 94.820312 251.140625 94.9375 251.1875 95.003906 251.257812 C 95.476562 251.574219 96.007812 251.867188 96.535156 252.160156 C 96.757812 252.289062 97 252.382812 97.238281 252.472656 C 97.316406 252.503906 97.398438 252.535156 97.476562 252.5625 L 97.558594 252.59375 C 97.597656 252.609375 97.636719 252.625 97.71875 252.65625 C 97.957031 252.746094 98.171875 252.78125 98.441406 252.792969 C 98.578125 252.800781 98.726562 252.765625 98.851562 252.675781 C 98.90625 252.652344 98.949219 252.664062 98.960938 252.625 C 99.074219 252.578125 99.144531 252.511719 99.253906 252.460938 C 99.433594 252.347656 99.535156 252.203125 99.609375 252.003906 C 99.640625 251.925781 99.710938 251.859375 99.78125 251.792969 C 99.867188 251.691406 99.9375 251.625 99.984375 251.503906 C 100.113281 251.28125 100.285156 251.070312 100.417969 250.847656 L 100.515625 250.703125 C 100.601562 250.597656 100.703125 250.453125 100.75 250.332031 C 100.777344 250.253906 100.835938 250.230469 100.863281 250.148438 L 100.894531 250.070312 L 100.925781 249.988281 L 100.957031 249.910156 C 100.972656 249.871094 101.042969 249.804688 101.054688 249.765625 C 101.171875 249.582031 101.3125 249.453125 101.390625 249.25 C 101.511719 248.933594 101.535156 248.621094 101.414062 248.347656 C 101.3125 248.125 101.199219 247.945312 100.976562 247.8125 C 100.910156 247.742188 100.847656 247.671875 100.765625 247.644531 C 100.5 247.496094 100.277344 247.367188 100.011719 247.21875 C 99.894531 247.175781 99.789062 247.089844 99.628906 247.027344 C 99.261719 246.796875 98.890625 246.566406 98.457031 246.261719 C 98.101562 245.992188 97.695312 245.742188 97.15625 245.355469 C 96.722656 245.054688 96.304688 244.710938 95.925781 244.386719 C 95.820312 244.300781 95.757812 244.230469 95.652344 244.144531 L 95.25 243.761719 C 94.84375 243.378906 94.441406 243 94 242.601562 C 93.722656 242.359375 93.464844 242.078125 93.207031 241.796875 C 92.949219 241.515625 92.703125 241.195312 92.445312 240.914062 L 92.355469 240.789062 C 91.917969 240.257812 91.417969 239.652344 90.996094 239.082031 C 90.90625 238.957031 90.710938 238.746094 90.53125 238.496094 Z M 90.53125 238.496094 " fill-opacity="1" fill-rule="nonzero"/></g></g></g></svg>