<svg xmlns="http://www.w3.org/2000/svg" xmlns:xlink="http://www.w3.org/1999/xlink" width="500" zoomAndPan="magnify" viewBox="0 0 375 374.999991" height="500" preserveAspectRatio="xMidYMid meet" version="1.0"><defs><g/><clipPath id="550bbeab65"><path d="M 127.046875 118.515625 L 175.082031 118.515625 L 175.082031 169 L 127.046875 169 Z M 127.046875 118.515625 " clip-rule="nonzero"/></clipPath><clipPath id="ecc244156a"><path d="M 64.144531 45.289062 L 138.902344 45.289062 L 138.902344 116.703125 L 64.144531 116.703125 Z M 64.144531 45.289062 " clip-rule="nonzero"/></clipPath><clipPath id="a88201b9ce"><path d="M 101.460938 45.289062 C 80.851562 45.289062 64.144531 61.277344 64.144531 80.996094 C 64.144531 100.714844 80.851562 116.703125 101.460938 116.703125 C 122.066406 116.703125 138.773438 100.714844 138.773438 80.996094 C 138.773438 61.277344 122.066406 45.289062 101.460938 45.289062 Z M 101.460938 45.289062 " clip-rule="nonzero"/></clipPath><clipPath id="5246e6d22f"><path d="M 246.128906 169 L 288.039062 169 L 288.039062 217.707031 L 246.128906 217.707031 Z M 246.128906 169 " clip-rule="nonzero"/></clipPath></defs><rect x="-37.5" width="450" fill="#ffffff" y="-37.499999" height="449.999989" fill-opacity="1"/><rect x="-37.5" width="450" fill="#ffffff" y="-37.499999" height="449.999989" fill-opacity="1"/><g clip-path="url(#550bbeab65)"><path fill="#fbeb78" d="M 127.046875 118.515625 L 175.082031 118.515625 L 175.082031 168.988281 L 127.046875 168.988281 Z M 127.046875 118.515625 " fill-opacity="1" fill-rule="nonzero"/></g><g clip-path="url(#ecc244156a)"><g clip-path="url(#a88201b9ce)"><path fill="#df3821" d="M 64.144531 45.289062 L 138.902344 45.289062 L 138.902344 116.703125 L 64.144531 116.703125 Z M 64.144531 45.289062 " fill-opacity="1" fill-rule="nonzero"/></g></g><g clip-path="url(#5246e6d22f)"><path fill="#b9e185" d="M 246.128906 169 L 288.039062 169 L 288.039062 217.625 L 246.128906 217.625 Z M 246.128906 169 " fill-opacity="1" fill-rule="nonzero"/></g><g fill="#000000" fill-opacity="1"><g transform="translate(70.93133, 113.706554)"><g><path d="M 43.96875 0 L 31.703125 0 L 31.703125 -14.078125 L 2.21875 -14.078125 L 2.21875 -24.40625 L 27.59375 -64.734375 L 43.96875 -64.734375 L 43.96875 -24.40625 L 53.9375 -24.40625 L 53.9375 -14.078125 L 43.96875 -14.078125 Z M 15.328125 -25.328125 L 15.71875 -24.40625 L 31.703125 -24.40625 L 31.703125 -49.46875 L 30.6875 -49.640625 Z M 15.328125 -25.328125 "/></g></g></g><g fill="#000000" fill-opacity="1"><g transform="translate(70.93133, 168.456551)"><g><path d="M 7.046875 19.796875 L 7.046875 -48.84375 L 19.3125 -48.84375 L 19.3125 -42.46875 L 20.234375 -42.28125 C 21.679688 -44.769531 23.613281 -46.640625 26.03125 -47.890625 C 28.457031 -49.140625 31.296875 -49.765625 34.546875 -49.765625 C 38.460938 -49.765625 41.890625 -48.832031 44.828125 -46.96875 C 47.765625 -45.113281 50.050781 -42.289062 51.6875 -38.5 C 53.332031 -34.707031 54.15625 -30.007812 54.15625 -24.40625 C 54.15625 -18.820312 53.289062 -14.140625 51.5625 -10.359375 C 49.832031 -6.578125 47.429688 -3.75 44.359375 -1.875 C 41.296875 0 37.753906 0.9375 33.734375 0.9375 C 30.703125 0.9375 28.078125 0.425781 25.859375 -0.59375 C 23.640625 -1.613281 21.765625 -3.203125 20.234375 -5.359375 L 19.3125 -5.1875 L 19.3125 19.796875 Z M 30.328125 -9.46875 C 33.992188 -9.46875 36.769531 -10.664062 38.65625 -13.0625 C 40.539062 -15.457031 41.484375 -19.238281 41.484375 -24.40625 C 41.484375 -29.5625 40.539062 -33.34375 38.65625 -35.75 C 36.769531 -38.15625 33.992188 -39.359375 30.328125 -39.359375 C 26.910156 -39.359375 24.195312 -38.117188 22.1875 -35.640625 C 20.175781 -33.160156 19.171875 -29.414062 19.171875 -24.40625 C 19.171875 -19.414062 20.175781 -15.675781 22.1875 -13.1875 C 24.195312 -10.707031 26.910156 -9.46875 30.328125 -9.46875 Z M 30.328125 -9.46875 "/></g></g></g><g fill="#000000" fill-opacity="1"><g transform="translate(124.433588, 168.456551)"><g><path d="M 19.046875 0.9375 C 15.910156 0.9375 13.191406 0.359375 10.890625 -0.796875 C 8.585938 -1.953125 6.816406 -3.640625 5.578125 -5.859375 C 4.335938 -8.085938 3.71875 -10.769531 3.71875 -13.90625 C 3.71875 -16.800781 4.335938 -19.226562 5.578125 -21.1875 C 6.816406 -23.15625 8.734375 -24.765625 11.328125 -26.015625 C 13.929688 -27.265625 17.328125 -28.234375 21.515625 -28.921875 C 24.441406 -29.390625 26.664062 -29.90625 28.1875 -30.46875 C 29.707031 -31.03125 30.734375 -31.664062 31.265625 -32.375 C 31.796875 -33.082031 32.0625 -33.984375 32.0625 -35.078125 C 32.0625 -36.640625 31.515625 -37.832031 30.421875 -38.65625 C 29.328125 -39.476562 27.507812 -39.890625 24.96875 -39.890625 C 22.257812 -39.890625 19.675781 -39.285156 17.21875 -38.078125 C 14.769531 -36.867188 12.644531 -35.273438 10.84375 -33.296875 L 9.96875 -33.296875 L 4.828125 -41.046875 C 7.304688 -43.796875 10.332031 -45.9375 13.90625 -47.46875 C 17.476562 -49 21.375 -49.765625 25.59375 -49.765625 C 32.0625 -49.765625 36.738281 -48.390625 39.625 -45.640625 C 42.519531 -42.898438 43.96875 -39.007812 43.96875 -33.96875 L 43.96875 -12.75 C 43.96875 -10.5625 44.925781 -9.46875 46.84375 -9.46875 C 47.582031 -9.46875 48.304688 -9.601562 49.015625 -9.875 L 49.640625 -9.703125 L 50.53125 -1.15625 C 49.84375 -0.707031 48.894531 -0.34375 47.6875 -0.0625 C 46.476562 0.21875 45.148438 0.359375 43.703125 0.359375 C 40.785156 0.359375 38.503906 -0.203125 36.859375 -1.328125 C 35.222656 -2.453125 34.050781 -4.207031 33.34375 -6.59375 L 32.40625 -6.6875 C 30.019531 -1.601562 25.566406 0.9375 19.046875 0.9375 Z M 22.9375 -8.234375 C 25.769531 -8.234375 28.035156 -9.1875 29.734375 -11.09375 C 31.429688 -13 32.28125 -15.648438 32.28125 -19.046875 L 32.28125 -24 L 31.4375 -24.171875 C 30.695312 -23.585938 29.726562 -23.09375 28.53125 -22.6875 C 27.34375 -22.289062 25.625 -21.898438 23.375 -21.515625 C 20.71875 -21.078125 18.804688 -20.316406 17.640625 -19.234375 C 16.472656 -18.160156 15.890625 -16.632812 15.890625 -14.65625 C 15.890625 -12.5625 16.507812 -10.96875 17.75 -9.875 C 18.988281 -8.78125 20.71875 -8.234375 22.9375 -8.234375 Z M 22.9375 -8.234375 "/></g></g></g><g fill="#000000" fill-opacity="1"><g transform="translate(245.174432, 216.443908)"><g><path d="M 22.21875 0.90625 C 18.96875 0.90625 15.992188 0.523438 13.296875 -0.234375 C 10.597656 -0.992188 8.296875 -2.039062 6.390625 -3.375 C 4.484375 -4.707031 3.070312 -6.238281 2.15625 -7.96875 L 8.78125 -15.109375 L 9.6875 -15.109375 C 11.269531 -12.984375 13.132812 -11.390625 15.28125 -10.328125 C 17.4375 -9.265625 19.773438 -8.734375 22.296875 -8.734375 C 24.617188 -8.734375 26.367188 -9.148438 27.546875 -9.984375 C 28.722656 -10.816406 29.3125 -12.007812 29.3125 -13.5625 C 29.3125 -14.769531 28.890625 -15.78125 28.046875 -16.59375 C 27.203125 -17.414062 25.832031 -18.054688 23.9375 -18.515625 L 17.65625 -20.015625 C 12.945312 -21.140625 9.507812 -22.851562 7.34375 -25.15625 C 5.175781 -27.46875 4.09375 -30.40625 4.09375 -33.96875 C 4.09375 -36.925781 4.84375 -39.492188 6.34375 -41.671875 C 7.851562 -43.859375 9.976562 -45.523438 12.71875 -46.671875 C 15.457031 -47.816406 18.648438 -48.390625 22.296875 -48.390625 C 26.578125 -48.390625 30.125 -47.769531 32.9375 -46.53125 C 35.75 -45.300781 37.941406 -43.65625 39.515625 -41.59375 L 33.15625 -34.703125 L 32.296875 -34.703125 C 30.972656 -36.191406 29.484375 -37.28125 27.828125 -37.96875 C 26.179688 -38.65625 24.335938 -39 22.296875 -39 C 17.585938 -39 15.234375 -37.535156 15.234375 -34.609375 C 15.234375 -33.378906 15.671875 -32.375 16.546875 -31.59375 C 17.421875 -30.820312 18.96875 -30.191406 21.1875 -29.703125 L 27.03125 -28.421875 C 31.851562 -27.378906 35.375 -25.71875 37.59375 -23.4375 C 39.820312 -21.15625 40.9375 -18.09375 40.9375 -14.25 C 40.9375 -11.238281 40.191406 -8.582031 38.703125 -6.28125 C 37.210938 -3.988281 35.0625 -2.21875 32.25 -0.96875 C 29.4375 0.28125 26.09375 0.90625 22.21875 0.90625 Z M 22.21875 0.90625 "/></g></g></g><g fill="#000000" fill-opacity="1"><g transform="translate(168.620312, 216.443908)"><g><path d="M 6.84375 0 L 6.84375 -47.484375 L 18.296875 -47.484375 L 18.296875 -41.109375 L 19.203125 -40.9375 C 20.753906 -43.5 22.566406 -45.378906 24.640625 -46.578125 C 26.722656 -47.785156 29.390625 -48.390625 32.640625 -48.390625 C 36.222656 -48.390625 39.101562 -47.675781 41.28125 -46.25 C 43.46875 -44.832031 45.0625 -42.757812 46.0625 -40.03125 L 46.96875 -40.03125 C 48.4375 -42.875 50.320312 -44.976562 52.625 -46.34375 C 54.9375 -47.707031 57.816406 -48.390625 61.265625 -48.390625 C 71.109375 -48.390625 76.03125 -42.90625 76.03125 -31.9375 L 76.03125 0 L 64.109375 0 L 64.109375 -30.4375 C 64.109375 -33.21875 63.5625 -35.222656 62.46875 -36.453125 C 61.375 -37.691406 59.625 -38.3125 57.21875 -38.3125 C 50.675781 -38.3125 47.40625 -33.9375 47.40625 -25.1875 L 47.40625 0 L 35.46875 0 L 35.46875 -30.4375 C 35.46875 -33.21875 34.914062 -35.222656 33.8125 -36.453125 C 32.707031 -37.691406 30.953125 -38.3125 28.546875 -38.3125 C 25.472656 -38.3125 23.070312 -37.285156 21.34375 -35.234375 C 19.625 -33.179688 18.765625 -29.914062 18.765625 -25.4375 L 18.765625 0 Z M 6.84375 0 "/></g></g></g><g fill="#000000" fill-opacity="1"><g transform="translate(168.615479, 167.679614)"><g><path d="M 6.84375 0 L 6.84375 -47.484375 L 18.421875 -47.484375 L 18.421875 -40.421875 L 19.328125 -40.25 C 20.472656 -42.894531 21.976562 -44.832031 23.84375 -46.0625 C 25.71875 -47.300781 27.988281 -47.921875 30.65625 -47.921875 C 33.351562 -47.921875 35.40625 -47.460938 36.8125 -46.546875 L 34.78125 -36.25 L 33.875 -36.078125 C 33.101562 -36.390625 32.359375 -36.617188 31.640625 -36.765625 C 30.921875 -36.910156 30.046875 -36.984375 29.015625 -36.984375 C 25.679688 -36.984375 23.140625 -35.8125 21.390625 -33.46875 C 19.640625 -31.132812 18.765625 -27.382812 18.765625 -22.21875 L 18.765625 0 Z M 6.84375 0 "/></g></g></g><g fill="#000000" fill-opacity="1"><g transform="translate(201.004415, 167.679614)"><g><path d="M 18.515625 0.90625 C 15.472656 0.90625 12.832031 0.347656 10.59375 -0.765625 C 8.351562 -1.890625 6.628906 -3.535156 5.421875 -5.703125 C 4.210938 -7.867188 3.609375 -10.472656 3.609375 -13.515625 C 3.609375 -16.328125 4.210938 -18.6875 5.421875 -20.59375 C 6.628906 -22.507812 8.492188 -24.078125 11.015625 -25.296875 C 13.546875 -26.515625 16.847656 -27.453125 20.921875 -28.109375 C 23.765625 -28.566406 25.925781 -29.066406 27.40625 -29.609375 C 28.882812 -30.160156 29.878906 -30.78125 30.390625 -31.46875 C 30.910156 -32.15625 31.171875 -33.03125 31.171875 -34.09375 C 31.171875 -35.613281 30.640625 -36.773438 29.578125 -37.578125 C 28.515625 -38.390625 26.75 -38.796875 24.28125 -38.796875 C 21.644531 -38.796875 19.132812 -38.207031 16.75 -37.03125 C 14.363281 -35.851562 12.296875 -34.300781 10.546875 -32.375 L 9.6875 -32.375 L 4.6875 -39.90625 C 7.101562 -42.570312 10.046875 -44.648438 13.515625 -46.140625 C 16.992188 -47.640625 20.785156 -48.390625 24.890625 -48.390625 C 31.171875 -48.390625 35.71875 -47.054688 38.53125 -44.390625 C 41.34375 -41.722656 42.75 -37.929688 42.75 -33.015625 L 42.75 -12.40625 C 42.75 -10.28125 43.679688 -9.21875 45.546875 -9.21875 C 46.265625 -9.21875 46.96875 -9.34375 47.65625 -9.59375 L 48.265625 -9.421875 L 49.125 -1.125 C 48.46875 -0.6875 47.550781 -0.332031 46.375 -0.0625 C 45.195312 0.207031 43.90625 0.34375 42.5 0.34375 C 39.65625 0.34375 37.4375 -0.195312 35.84375 -1.28125 C 34.25 -2.375 33.109375 -4.085938 32.421875 -6.421875 L 31.515625 -6.5 C 29.191406 -1.5625 24.859375 0.90625 18.515625 0.90625 Z M 22.296875 -8 C 25.054688 -8 27.257812 -8.925781 28.90625 -10.78125 C 30.5625 -12.632812 31.390625 -15.210938 31.390625 -18.515625 L 31.390625 -23.328125 L 30.5625 -23.5 C 29.84375 -22.925781 28.898438 -22.445312 27.734375 -22.0625 C 26.578125 -21.675781 24.910156 -21.296875 22.734375 -20.921875 C 20.148438 -20.492188 18.289062 -19.753906 17.15625 -18.703125 C 16.019531 -17.660156 15.453125 -16.175781 15.453125 -14.25 C 15.453125 -12.207031 16.054688 -10.65625 17.265625 -9.59375 C 18.472656 -8.53125 20.148438 -8 22.296875 -8 Z M 22.296875 -8 "/></g></g></g><g fill="#000000" fill-opacity="1"><g transform="translate(78.020437, 215.72771)"><g><path d="M 1.953125 0 L 1.953125 -5.0625 L 0.234375 -5.0625 L 0.234375 -5.9375 L 4.78125 -5.9375 L 4.78125 -5.0625 L 3.046875 -5.0625 L 3.046875 0 Z M 1.953125 0 "/></g></g></g><g fill="#000000" fill-opacity="1"><g transform="translate(85.914037, 215.72771)"><g><path d="M 0.578125 0 L 0.578125 -5.9375 L 4.453125 -5.9375 L 4.453125 -5.0625 L 1.65625 -5.0625 L 1.65625 -3.4375 L 4.203125 -3.4375 L 4.203125 -2.59375 L 1.65625 -2.59375 L 1.65625 -0.875 L 4.453125 -0.875 L 4.453125 0 Z M 0.578125 0 "/></g></g></g><g fill="#000000" fill-opacity="1"><g transform="translate(93.697411, 215.72771)"><g><path d="M 3.265625 0.109375 C 2.660156 0.109375 2.144531 -0.0195312 1.71875 -0.28125 C 1.289062 -0.539062 0.957031 -0.898438 0.71875 -1.359375 C 0.488281 -1.816406 0.375 -2.351562 0.375 -2.96875 C 0.375 -3.570312 0.488281 -4.101562 0.71875 -4.5625 C 0.957031 -5.03125 1.289062 -5.394531 1.71875 -5.65625 C 2.144531 -5.914062 2.660156 -6.046875 3.265625 -6.046875 C 3.972656 -6.046875 4.554688 -5.867188 5.015625 -5.515625 C 5.472656 -5.160156 5.757812 -4.660156 5.875 -4.015625 L 4.671875 -4.015625 C 4.597656 -4.335938 4.441406 -4.59375 4.203125 -4.78125 C 3.960938 -4.96875 3.644531 -5.0625 3.25 -5.0625 C 2.695312 -5.0625 2.265625 -4.875 1.953125 -4.5 C 1.648438 -4.125 1.5 -3.613281 1.5 -2.96875 C 1.5 -2.3125 1.648438 -1.796875 1.953125 -1.421875 C 2.265625 -1.054688 2.695312 -0.875 3.25 -0.875 C 3.644531 -0.875 3.960938 -0.957031 4.203125 -1.125 C 4.441406 -1.300781 4.597656 -1.539062 4.671875 -1.84375 L 5.875 -1.84375 C 5.757812 -1.238281 5.472656 -0.757812 5.015625 -0.40625 C 4.554688 -0.0625 3.972656 0.109375 3.265625 0.109375 Z M 3.265625 0.109375 "/></g></g></g><g fill="#000000" fill-opacity="1"><g transform="translate(102.828881, 215.72771)"><g><path d="M 0.578125 0 L 0.578125 -5.9375 L 1.65625 -5.9375 L 1.65625 -3.46875 L 4.328125 -3.46875 L 4.328125 -5.9375 L 5.40625 -5.9375 L 5.40625 0 L 4.328125 0 L 4.328125 -2.59375 L 1.65625 -2.59375 L 1.65625 0 Z M 0.578125 0 "/></g></g></g><g fill="#000000" fill-opacity="1"><g transform="translate(111.697523, 215.72771)"><g><path d="M 0.578125 0 L 0.578125 -5.9375 L 1.65625 -5.9375 L 4.453125 -1.75 L 4.453125 -5.9375 L 5.546875 -5.9375 L 5.546875 0 L 4.453125 0 L 1.65625 -4.171875 L 1.65625 0 Z M 0.578125 0 "/></g></g></g><g fill="#000000" fill-opacity="1"><g transform="translate(120.693338, 215.72771)"><g><path d="M 3.359375 0.109375 C 2.765625 0.109375 2.242188 -0.0195312 1.796875 -0.28125 C 1.359375 -0.539062 1.007812 -0.898438 0.75 -1.359375 C 0.5 -1.828125 0.375 -2.363281 0.375 -2.96875 C 0.375 -3.570312 0.5 -4.101562 0.75 -4.5625 C 1.007812 -5.03125 1.359375 -5.394531 1.796875 -5.65625 C 2.242188 -5.914062 2.765625 -6.046875 3.359375 -6.046875 C 3.941406 -6.046875 4.457031 -5.914062 4.90625 -5.65625 C 5.351562 -5.394531 5.703125 -5.03125 5.953125 -4.5625 C 6.203125 -4.101562 6.328125 -3.570312 6.328125 -2.96875 C 6.328125 -2.363281 6.203125 -1.828125 5.953125 -1.359375 C 5.703125 -0.898438 5.351562 -0.539062 4.90625 -0.28125 C 4.457031 -0.0195312 3.941406 0.109375 3.359375 0.109375 Z M 3.359375 -0.875 C 3.921875 -0.875 4.367188 -1.0625 4.703125 -1.4375 C 5.046875 -1.8125 5.21875 -2.320312 5.21875 -2.96875 C 5.21875 -3.613281 5.046875 -4.125 4.703125 -4.5 C 4.367188 -4.875 3.921875 -5.0625 3.359375 -5.0625 C 2.796875 -5.0625 2.34375 -4.875 2 -4.5 C 1.664062 -4.125 1.5 -3.613281 1.5 -2.96875 C 1.5 -2.320312 1.664062 -1.8125 2 -1.4375 C 2.34375 -1.0625 2.796875 -0.875 3.359375 -0.875 Z M 3.359375 -0.875 "/></g></g></g><g fill="#000000" fill-opacity="1"><g transform="translate(130.282662, 215.72771)"><g><path d="M 0.578125 0 L 0.578125 -5.9375 L 1.65625 -5.9375 L 1.65625 -0.84375 L 4.296875 -0.84375 L 4.296875 0 Z M 0.578125 0 "/></g></g></g><g fill="#000000" fill-opacity="1"><g transform="translate(137.837111, 215.72771)"><g><path d="M 3.359375 0.109375 C 2.765625 0.109375 2.242188 -0.0195312 1.796875 -0.28125 C 1.359375 -0.539062 1.007812 -0.898438 0.75 -1.359375 C 0.5 -1.828125 0.375 -2.363281 0.375 -2.96875 C 0.375 -3.570312 0.5 -4.101562 0.75 -4.5625 C 1.007812 -5.03125 1.359375 -5.394531 1.796875 -5.65625 C 2.242188 -5.914062 2.765625 -6.046875 3.359375 -6.046875 C 3.941406 -6.046875 4.457031 -5.914062 4.90625 -5.65625 C 5.351562 -5.394531 5.703125 -5.03125 5.953125 -4.5625 C 6.203125 -4.101562 6.328125 -3.570312 6.328125 -2.96875 C 6.328125 -2.363281 6.203125 -1.828125 5.953125 -1.359375 C 5.703125 -0.898438 5.351562 -0.539062 4.90625 -0.28125 C 4.457031 -0.0195312 3.941406 0.109375 3.359375 0.109375 Z M 3.359375 -0.875 C 3.921875 -0.875 4.367188 -1.0625 4.703125 -1.4375 C 5.046875 -1.8125 5.21875 -2.320312 5.21875 -2.96875 C 5.21875 -3.613281 5.046875 -4.125 4.703125 -4.5 C 4.367188 -4.875 3.921875 -5.0625 3.359375 -5.0625 C 2.796875 -5.0625 2.34375 -4.875 2 -4.5 C 1.664062 -4.125 1.5 -3.613281 1.5 -2.96875 C 1.5 -2.320312 1.664062 -1.8125 2 -1.4375 C 2.34375 -1.0625 2.796875 -0.875 3.359375 -0.875 Z M 3.359375 -0.875 "/></g></g></g><g fill="#000000" fill-opacity="1"><g transform="translate(147.426435, 215.72771)"><g><path d="M 3.171875 0.109375 C 2.609375 0.109375 2.117188 -0.015625 1.703125 -0.265625 C 1.285156 -0.523438 0.957031 -0.882812 0.71875 -1.34375 C 0.488281 -1.800781 0.375 -2.332031 0.375 -2.9375 C 0.375 -3.550781 0.492188 -4.085938 0.734375 -4.546875 C 0.984375 -5.015625 1.328125 -5.378906 1.765625 -5.640625 C 2.210938 -5.910156 2.738281 -6.046875 3.34375 -6.046875 C 4.039062 -6.046875 4.617188 -5.878906 5.078125 -5.546875 C 5.535156 -5.210938 5.832031 -4.75 5.96875 -4.15625 L 4.765625 -4.15625 C 4.671875 -4.4375 4.503906 -4.65625 4.265625 -4.8125 C 4.023438 -4.96875 3.71875 -5.046875 3.34375 -5.046875 C 2.75 -5.046875 2.289062 -4.851562 1.96875 -4.46875 C 1.65625 -4.09375 1.5 -3.578125 1.5 -2.921875 C 1.5 -2.265625 1.65625 -1.753906 1.96875 -1.390625 C 2.289062 -1.035156 2.726562 -0.859375 3.28125 -0.859375 C 3.8125 -0.859375 4.210938 -1.003906 4.484375 -1.296875 C 4.765625 -1.585938 4.929688 -1.972656 4.984375 -2.453125 L 3.484375 -2.453125 L 3.484375 -3.265625 L 6.078125 -3.265625 L 6.078125 0 L 5.078125 0 L 5 -0.78125 C 4.800781 -0.5 4.554688 -0.28125 4.265625 -0.125 C 3.984375 0.03125 3.617188 0.109375 3.171875 0.109375 Z M 3.171875 0.109375 "/></g></g></g><g fill="#000000" fill-opacity="1"><g transform="translate(156.863142, 215.72771)"><g><path d="M 2.109375 0 L 2.109375 -2.109375 L 0.125 -5.9375 L 1.34375 -5.9375 L 2.671875 -3.203125 L 3.96875 -5.9375 L 5.1875 -5.9375 L 3.203125 -2.109375 L 3.203125 0 Z M 2.109375 0 "/></g></g></g></svg>